<?xml version="1.0" encoding="UTF-8" standalone="no"?>
<!-- Created with Inkscape (http://www.inkscape.org/) -->

<svg
   width="800"
   height="800"
   viewBox="0 0 211.66667 211.66666"
   version="1.1"
   id="svg1"
   xml:space="preserve"
   inkscape:version="1.4.2 (ebf0e940, 2025-05-08)"
   sodipodi:docname="logo-light.svg"
   xmlns:inkscape="http://www.inkscape.org/namespaces/inkscape"
   xmlns:sodipodi="http://sodipodi.sourceforge.net/DTD/sodipodi-0.dtd"
   xmlns="http://www.w3.org/2000/svg"
   xmlns:svg="http://www.w3.org/2000/svg"><sodipodi:namedview
     id="namedview1"
     pagecolor="#ffffff"
     bordercolor="#000000"
     borderopacity="0.25"
     inkscape:showpageshadow="2"
     inkscape:pageopacity="0.0"
     inkscape:pagecheckerboard="0"
     inkscape:deskcolor="#d1d1d1"
     inkscape:document-units="mm"
     inkscape:zoom="1.0705732"
     inkscape:cx="552.04073"
     inkscape:cy="369.89531"
     inkscape:window-width="2560"
     inkscape:window-height="1381"
     inkscape:window-x="0"
     inkscape:window-y="31"
     inkscape:window-maximized="1"
     inkscape:current-layer="layer1" /><defs
     id="defs1" /><g
     inkscape:label="Layer 1"
     inkscape:groupmode="layer"
     id="layer1"><path
       style="fill:#480082;fill-opacity:1;stroke-width:1.22075"
       d="m 100.29239,203.34703 c -0.338775,-3.47267 0.33549,-9.45735 1.06554,-9.45735 0.61221,0 0.62669,0.16529 0.4038,4.60743 -0.24852,4.95283 -0.27539,5.09241 -0.97977,5.09241 -0.25625,0 -0.47656,-0.10914 -0.48957,-0.24249 z m 4.55025,-4.44577 c 0,-4.47271 0.0298,-4.68825 0.64665,-4.68825 0.61693,0 0.64666,0.21554 0.64666,4.68825 0,4.47271 -0.0298,4.68826 -0.64666,4.68826 -0.61692,0 -0.64665,-0.21555 -0.64665,-4.68826 z m 15.86788,2.23456 c -0.54713,-0.46039 -0.99478,-1.04238 -0.99478,-1.29332 0,-0.67202 1.19479,-0.55475 1.93996,0.19042 1.32126,1.32125 3.92899,0.36813 4.35985,-1.59353 0.93599,-4.26158 -4.4451,-7.08529 -5.49369,-2.88279 -0.35124,1.40763 -1.45278,1.44462 -1.45278,0.0488 0,-3.81458 5.70891,-4.73051 7.67088,-1.23071 2.63797,4.70573 -2.1249,10.04662 -6.02944,6.76114 z m -35.221335,0.22582 c -0.26422,-0.16742 -0.360683,-0.55131 -0.24249,-0.96504 0.596888,-2.08943 0.639858,-1.95918 -0.580896,-1.76108 -0.96083,0.15591 -1.282354,0.0343 -2.117801,-0.80115 -2.694197,-2.69423 0.746797,-8.16163 3.793566,-6.0276 0.395537,0.27706 0.834984,0.43215 0.976531,0.34467 1.295586,-0.80071 1.119688,1.56161 -0.616933,8.28563 -0.326722,1.26503 -0.48459,1.38546 -1.211977,0.92457 z m 0.420427,-4.63396 c 0.595595,-0.85032 0.667705,-3.19095 0.115363,-3.74331 -1.209634,-1.20965 -2.902356,0.24368 -2.962661,2.54366 -0.05055,1.92969 1.792177,2.70611 2.847324,1.19965 z m 24.995428,3.60266 c -1.98154,-1.15414 -1.94041,-5.35893 0.063,-6.43108 3.37325,-1.80532 6.69827,3.05962 3.96159,5.79633 -1.0437,1.04369 -2.83685,1.32652 -4.02452,0.63475 z m 2.99078,-1.26742 c 1.11386,-1.11385 0.63843,-3.96087 -0.72077,-4.31632 -2.21315,-0.57875 -3.30628,2.41618 -1.60492,4.39716 0.64165,0.74709 1.52859,0.71627 2.32569,-0.0808 z m -21.575026,0.90187 c -0.992107,-0.47882 -1.119237,-1.09706 -0.754805,-3.67046 0.223862,-1.58075 0.211935,-2.28614 -0.04126,-2.44266 -0.609377,-0.37661 -0.04456,-1.22248 0.68837,-1.03082 0.366544,0.0958 0.666435,0.31171 0.666435,0.47969 0,0.17878 0.603565,0.21493 1.455565,0.0871 1.958772,-0.29374 3.071039,0.39958 3.071039,1.91431 0,1.51728 -0.824582,2.14427 -2.820003,2.14427 -1.62337,0 -2.241194,0.42832 -1.754272,1.21618 0.395682,0.64022 1.841971,0.80391 2.293711,0.25959 0.514072,-0.61943 1.633894,-0.668 1.633894,-0.0709 0,1.2834 -2.689053,1.95807 -4.438637,1.11365 z m 3.166586,-3.82319 c 0.800975,-0.42867 0.800926,-1.16525 -8.5e-5,-1.59394 -1.101803,-0.58966 -2.607799,0.35267 -2.607799,1.63177 0,0.40318 1.833523,0.3766 2.607884,-0.0379 z m -21.037199,-0.22369 c -2.261069,-1.14577 -2.407241,-3.87436 -0.319398,-5.96221 2.656628,-2.65664 6.494845,0.75541 4.717055,4.1933 -1.04084,2.01277 -2.643934,2.6576 -4.397657,1.76891 z m 2.524923,-1.47796 c 1.525393,-1.62371 1.178797,-4.10688 -0.57323,-4.10688 -1.259549,0 -2.275389,1.31144 -2.275389,2.9375 0,1.90423 1.557573,2.54364 2.848619,1.16938 z m 60.100796,0.66222 c -0.48667,-0.35996 -2.48709,-4.99256 -2.48709,-5.75968 0,-1.22567 1.29294,-0.088 1.95224,1.71806 1.12518,3.08195 1.92325,3.76117 3.00923,2.56117 0.70413,-0.77804 0.67501,-1.61648 -0.12675,-3.65055 -0.67715,-1.71797 -0.6491,-2.54973 0.0859,-2.54589 0.68572,0.004 2.85083,6.24004 2.28263,6.57487 -0.25401,0.14967 -0.5355,0.19846 -0.62555,0.10841 -0.0901,-0.0901 -0.68143,0.18761 -1.31418,0.61702 -1.29066,0.87587 -1.9757,0.96878 -2.77641,0.37657 z M 67.878679,193.3169 c -0.324269,-0.0718 -0.522654,-0.3048 -0.440864,-0.51795 0.103399,-0.26949 -0.194245,-0.34746 -0.977469,-0.25603 -0.960441,0.11208 -1.109276,0.0425 -1.011346,-0.47335 0.07545,-0.39736 0.446637,-0.6424 1.082039,-0.71428 1.332319,-0.15076 1.733056,-0.55831 2.667384,-2.7127 0.713897,-1.64611 2.018103,-2.67919 2.018103,-1.59856 0,0.24369 -2.571226,6.33234 -2.695083,6.38198 -0.0293,0.0123 -0.318508,-0.0374 -0.642764,-0.10913 z m 78.125951,-2.16478 c -1.91272,-0.83183 -2.95568,-4.03174 -1.83537,-5.63117 1.49314,-2.13178 4.36755,-1.83824 5.59692,0.57152 1.1979,2.34807 0.66554,4.19172 -1.4678,5.08307 -1.26834,0.52995 -1.0154,0.53254 -2.29375,-0.0235 z m 2.4873,-1.4657 c 1.5658,-1.56582 -0.46075,-4.92647 -2.51296,-4.16726 -0.99642,0.36861 -1.20255,1.06862 -0.75476,2.5632 0.61332,2.04704 2.09661,2.77517 3.26772,1.60406 z m -88.825703,-0.31451 c -1.582293,-0.96476 -1.646688,-1.8998 -0.297035,-4.31321 0.699065,-1.25003 1.03481,-2.17554 0.854602,-2.35575 -0.163251,-0.16325 -0.175886,-0.4925 -0.02807,-0.73166 0.34186,-0.55312 1.644294,0.0607 1.644294,0.77495 0,0.28722 0.312147,0.47362 0.793112,0.47362 1.964022,0 3.08172,1.27471 2.644641,3.01618 -0.310949,1.23892 -1.531155,1.58007 -3.443002,0.96261 -1.986289,-0.64149 -2.777497,-0.23878 -1.753626,0.89259 0.496163,0.54827 0.855212,0.64554 1.815812,0.49193 1.363325,-0.21801 1.804835,0.16527 1.054596,0.91552 -0.692558,0.69254 -2.025938,0.64108 -3.285318,-0.12678 z m 4.338108,-3.77385 c 0.476497,-1.24176 -1.966159,-1.87371 -2.967129,-0.76764 -0.561144,0.62005 -0.554991,0.65046 0.192379,0.94948 1.238883,0.49567 2.547666,0.40991 2.77475,-0.18184 z m 32.108438,4.06655 C 43.718549,183.20598 9.8763537,133.09961 23.81462,82.620767 38.953006,27.795498 104.4833,3.2784343 151.73335,34.762111 c 54.59148,36.375412 49.68162,117.251059 -8.89967,146.595949 -13.44279,6.73385 -32.29243,10.08514 -46.720907,8.30655 z m 18.572167,-4.67043 C 180.85039,177.25439 209.04485,95.997457 161.91725,48.869871 119.88284,6.8354602 48.038151,23.833898 29.330316,80.239906 10.929095,135.72144 56.612034,191.78733 114.68494,184.99418 Z M 96.921096,181.2458 c -5.179061,-0.63069 -12.810875,-2.38702 -16.849184,-3.8775 -2.276206,-0.84013 -2.243502,-0.81621 -1.825479,-1.33468 0.182686,-0.22659 0.757064,-1.6487 1.276384,-3.16027 0.665971,-1.93839 2.047296,-4.51885 4.687458,-8.75661 4.684925,-7.51984 5.614845,-9.22949 9.482243,-17.43295 1.718626,-3.64551 4.834931,-10.1929 6.925092,-14.54975 2.09015,-4.35685 4.04917,-8.48846 4.35334,-9.18136 0.65271,-1.48691 0.82301,-1.35259 1.8022,1.42149 0.408,1.1559 1.83473,4.28409 3.17051,6.95155 2.19329,4.37985 4.07389,8.4373 8.80745,19.00237 1.94214,4.33476 3.65126,7.47153 6.55862,12.03712 4.07632,6.40123 4.64796,7.42585 5.86971,10.52103 0.66406,1.6823 1.34111,3.22156 1.50453,3.42058 0.4979,0.60631 -8.4899,3.31191 -14.26155,4.29317 -5.9614,1.01353 -16.00463,1.31519 -21.501324,0.64581 z m 6.037504,-1.61248 c 0.74645,-0.39948 0.77343,-1.90529 0.0712,-3.96652 -0.47733,-1.40089 -0.47725,-2.12272 9.5e-4,-8.86829 0.28637,-4.0388 0.52573,-9.67122 0.53194,-12.5165 0.006,-2.8453 0.14813,-7.50122 0.31542,-10.34651 0.68768,-11.69684 0.73904,-16.57173 0.16517,-15.6814 -0.4753,0.73741 -5.864677,12.10829 -7.856655,16.57646 l -0.831456,1.86504 0.398223,5.40985 c 1.144103,15.54289 1.084029,20.59998 -0.27937,23.5162 -1.644551,3.51759 -1.568364,4.00177 0.692119,4.39846 1.690757,0.29671 5.970739,0.053 6.792469,-0.38679 z m 19.87506,-1.10584 c 0.31447,-0.8195 -0.41028,-1.31919 -3.52616,-2.4311 -4.41036,-1.57383 -5.2051,-2.46633 -4.95354,-5.56281 0.10498,-1.29166 0.33971,-5.47667 0.52172,-9.30001 0.18201,-3.82336 0.47285,-8.5703 0.64632,-10.54877 l 0.31541,-3.59721 -3.7195,-8.0426 c -2.04573,-4.42343 -4.15998,-8.91558 -4.69834,-9.98257 l -0.9788,-1.93996 0.15931,4.52659 c 0.58936,16.74575 0.90999,24.30093 1.34584,31.71253 0.28184,4.79295 0.40024,9.61175 0.2743,11.16398 -0.28915,3.56359 -0.36307,3.50909 5.44092,4.01088 6.78277,0.58637 8.94488,0.58428 9.17252,-0.008 z m 20.78212,-7.72057 c -0.25232,-0.23129 -1.76825,-0.75027 -3.36872,-1.15334 -4.62658,-1.16516 -3.9443,-0.0807 -8.894,-14.13755 -1.42871,-4.05748 -3.16735,-8.83223 -3.8636,-10.61053 -2.03454,-5.1963 -5.56091,-18.56744 -7.63182,-28.93786 -0.94543,-4.73448 -1.00775,-15.20181 -0.14627,-24.572911 0.81996,-8.919602 0.48435,-8.678198 13.26081,-9.538475 3.82335,-0.257432 9.78875,-0.701677 13.25645,-0.987223 6.3986,-0.526877 9.47357,-0.48575 12.52373,0.167499 2.99384,0.641177 6.73573,0.327639 6.61312,-0.554125 -0.0824,-0.592859 0.0535,-0.727484 0.73442,-0.727484 0.57752,0 0.94933,-0.249643 1.20387,-0.808321 0.20257,-0.444575 0.49044,-0.808323 0.63973,-0.808323 0.48817,0 0.28481,-0.616738 -0.30795,-0.933975 -0.31867,-0.170552 -1.81002,-0.473689 -3.31412,-0.673648 -4.01054,-0.533177 -5.55356,-1.302325 -2.61264,-1.302325 1.38789,0 2.33681,-0.742048 1.72776,-1.351106 -0.46324,-0.46324 -6.09337,-0.444965 -7.28663,0.02368 -0.98914,0.388469 -12.03663,0.447078 -15.09454,0.08008 l -1.77831,-0.213424 5.33492,-2.805318 c 2.9342,-1.542936 5.7714,-2.968361 6.30489,-3.167625 0.53348,-0.199263 1.49069,-0.720428 2.12711,-1.158153 l 1.15714,-0.795871 2.0789,0.545262 c 2.47917,0.650235 3.58303,0.446442 4.15898,-0.767806 1.88514,-3.974285 1.56841,-5.326247 -1.3581,-5.797043 -1.36589,-0.219737 -1.38424,-0.262291 -0.76421,-1.770398 0.92887,-2.259287 -0.36616,-3.311455 -1.5142,-1.230239 -1.33201,2.414675 -2.66251,3.224658 -9.44223,5.748212 -1.95613,0.728119 -8.66542,3.219691 -14.90953,5.536828 L 121.0978,72.31838 h -6.14554 -6.14555 l -0.38865,-2.020801 c -0.21376,-1.111447 -0.45866,-2.316148 -0.54425,-2.677125 -0.1237,-0.521799 0.09,-0.745112 1.0425,-1.089548 9.20865,-3.329899 6.30369,-17.477951 -3.58867,-17.477951 -9.705952,0 -12.44287,13.591778 -3.49017,17.33245 0.90975,0.380118 1.09483,0.607532 0.9613,1.181067 -0.0909,0.390665 -0.3314,1.537638 -0.53436,2.548812 l -0.369,1.838517 -5.720439,0.101563 -5.720429,0.101562 -4.676808,-1.555643 C 72.391258,66.148542 61.362147,61.824374 59.724798,60.386766 58.45497,59.271851 55.658796,57.911052 53.999315,57.600382 c -1.624029,-0.304017 -1.670798,0.56637 -0.08082,1.504469 2.328783,1.37402 1.651069,1.497597 -2.424968,0.442159 -4.130215,-1.069479 -4.182965,-1.06495 -4.092409,0.350587 0.05054,0.790207 0.322535,1.346285 0.854858,1.747815 0.650771,0.490878 0.712492,0.671097 0.370865,1.082748 -0.698468,0.8416 3.141465,2.6636 7.191562,3.412301 0.950894,0.175776 2.367396,0.749933 3.147776,1.275895 1.235475,0.832677 6.466431,3.360285 11.38502,5.501243 0.86582,0.376883 1.468616,0.826108 1.355061,1.009856 -0.289294,0.468086 -15.679706,0.44394 -16.877571,-0.02649 -1.193264,-0.468623 -6.823396,-0.486898 -7.286635,-0.02368 -0.609058,0.609058 0.33987,1.351105 1.727769,1.351105 2.94091,0 1.397888,0.769149 -2.612656,1.302325 -1.504092,0.19996 -2.995438,0.503097 -3.314105,0.673649 -0.592773,0.317237 -0.796126,0.933974 -0.30796,0.933974 0.149286,0 0.437165,0.363749 0.639725,0.808323 0.254552,0.558678 0.626357,0.808322 1.203871,0.808322 0.680936,0 0.816855,0.134625 0.734418,0.727484 -0.126213,0.907703 3.701424,1.192725 6.783305,0.505123 2.192768,-0.489242 5.143611,-0.481526 11.060253,0.02893 2.40071,0.2071 7.711369,0.584253 11.801468,0.838096 14.414194,0.894608 14.174352,0.832042 14.996164,3.911702 1.301335,4.876679 1.413243,24.591452 0.174519,30.745852 -2.009507,9.9839 -5.645341,24.29243 -7.060072,27.78437 -0.423895,1.04629 -1.715807,4.59406 -2.870897,7.88392 -6.415337,18.27176 -5.278912,16.44024 -11.152119,17.97329 l -3.002444,0.78369 -2.494135,-1.67467 c -11.67832,-7.84138 -26.444074,-24.69373 -25.258442,-28.82779 0.385405,-1.34383 0.09278,-2.81006 -1.094966,-5.48649 -1.124645,-2.53423 -0.854809,-3.63188 0.444304,-1.80744 0.413848,0.5812 1.741785,2.15651 2.950953,3.50069 3.145114,3.49625 3.24231,3.77355 2.499995,7.1322 -0.665788,3.01236 -0.608485,3.53498 0.558299,5.0924 0.87301,1.16531 1.813968,1.34021 2.945692,0.54751 1.376987,-0.96449 0.808578,-4.04213 -1.298858,-7.03267 -0.661002,-0.93799 -0.53419,-1.57002 0.204806,-1.02077 5.305387,3.94324 6.668725,5.1085 6.719766,5.74355 0.03149,0.39137 0.07947,1.604 0.106816,2.69471 0.06311,2.52141 0.620191,3.85841 1.866703,4.48025 3.055925,1.52448 3.020134,-3.20599 -0.04627,-6.1087 -1.48164,-1.40257 -0.958133,-1.54479 1.654965,-0.44962 1.288151,0.53989 2.794746,1.17024 3.348003,1.40078 0.833274,0.34723 1.137389,0.79156 1.771839,2.58873 1.160522,3.2873 3.885941,4.41398 4.111476,1.69969 0.102666,-1.2351 -0.190292,-1.53222 -3.009293,-3.05229 -0.696404,-0.37551 -0.954813,-1.72376 -0.361295,-1.88499 0.198714,-0.0539 0.978813,-0.26584 1.733556,-0.4708 1.541007,-0.4185 2.4575,-1.70159 2.284581,-3.19844 -0.229746,-1.9887 -2.752984,-0.80911 -4.1725,1.95063 -1.120543,2.17847 -2.158391,2.27275 -5.974055,0.54264 -2.694411,-1.22169 -2.640185,-1.59101 0.219774,-1.49674 l 2.298239,0.0757 1.265129,-1.42334 c 2.659133,-2.99171 -1.21642,-4.16483 -4.067589,-1.23125 -2.421231,2.4912 -3.605278,2.43991 -7.209776,-0.3123 -3.09632,-2.36418 -3.142745,-2.77527 -0.213058,-1.88653 2.749335,0.83405 5.074835,0.34121 6.152762,-1.30391 0.893519,-1.36369 -0.556909,-3.47757 -2.202143,-3.20946 -1.327704,0.21637 -3.092625,0.94028 -4.067347,1.66831 -2.428776,1.81407 -4.649219,0.96082 -7.997698,-3.07328 -2.615831,-3.15146 -2.414161,-3.3293 1.534305,-1.35304 3.597794,1.80075 6.065683,1.39938 6.065683,-0.98648 0,-2.38637 -2.183135,-3.27518 -6.310517,-2.56917 -3.731747,0.63834 -4.728432,0.29111 -6.499184,-2.26424 -2.635548,-3.80333 -4.19008,-8.01713 -4.812566,-13.04518 C 24.54189,70.869 58.428938,31.079401 102.51638,29.727897 c 5.79036,-0.177504 5.92923,-0.166373 6.40536,0.513405 0.89071,1.271663 2.16965,1.724297 6.40255,2.265965 1.96939,0.252013 2.31079,0.902143 0.61304,1.167396 -0.67829,0.105973 -2.80619,0.492596 -4.72865,0.859164 -4.35514,0.830414 -5.18638,0.687925 -7.0287,-1.204827 -2.81101,-2.887967 -6.371621,-3.346107 -6.876781,-0.884825 -0.419708,2.045001 1.721723,3.259123 5.841911,3.312175 2.25847,0.02909 2.60495,0.429742 0.86749,1.003154 -0.63432,0.209345 -1.09441,0.439532 -1.02242,0.511525 0.0721,0.072 0.59842,-0.03209 1.16983,-0.231272 1.6163,-0.563449 1.52367,-0.166403 -0.39748,1.7035 -2.7312,2.658388 -2.92323,6.371617 -0.34569,6.684667 2.16885,0.263414 3.03742,-1.261039 3.04057,-5.336649 0.003,-3.568561 1.07615,-4.458301 6.73553,-5.583231 3.77286,-0.749938 3.85638,-0.333023 0.39126,1.952981 -3.33046,2.197146 -4.1074,3.984965 -2.45142,5.640942 1.74465,1.744652 4.32902,-0.179475 5.67544,-4.225518 1.3459,-4.044397 2.39101,-4.556686 8.62455,-4.227529 5.79045,0.305761 5.82314,0.310933 8.34766,1.321042 35.38929,14.159898 54.94553,52.983897 45.27864,89.889248 -2.42069,9.24146 -7.83075,20.88248 -9.89701,21.29572 -0.95585,0.19117 -3.32813,2.35636 -4.92174,4.49209 -1.52262,2.04059 -1.87256,1.42841 -0.69443,-1.21488 0.23777,-0.53348 0.82838,-2.20672 1.31248,-3.71826 1.26682,-3.95571 1.54917,-4.26792 4.79431,-5.30164 3.80794,-1.213 5.65939,-3.84763 3.81627,-5.4306 -1.547,-1.32864 -3.04797,-0.56288 -5.20325,2.65455 -1.77891,2.65556 -2.12909,2.79658 -1.89516,0.76321 l 0.18143,-1.57704 -0.34843,1.38501 c -0.45276,1.7997 -0.92871,1.59356 -1.37714,-0.59644 -0.77555,-3.78761 -4.23022,-6.0409 -5.80805,-3.78824 -1.18281,1.68872 -0.12731,3.37821 3.39609,5.43599 3.01182,1.75901 3.26211,3.60862 1.1985,8.85665 -0.97194,2.47177 -1.53354,2.69293 -1.56491,0.61628 -0.0833,-5.5104 -2.0917,-8.21713 -4.62104,-6.22753 -1.50438,1.18333 -0.80945,3.95322 1.71516,6.83636 2.35794,2.6928 2.45007,3.44902 0.82894,6.80468 -2.35159,4.86773 -5.3797,8.02873 -11.96422,12.48933 -4.13009,2.79788 -3.85651,2.66252 -4.39115,2.17252 z M 72.319258,153.27078 c 0.314429,-0.8194 -0.82661,-2.44916 -1.988621,-2.8404 -0.574415,-0.19341 -1.010187,-0.48047 -0.9684,-0.63793 0.04175,-0.15747 -0.287756,-0.42918 -0.73233,-0.60382 l -0.808323,-0.31752 1.203518,-0.55044 c 2.290219,-1.04744 3.098359,-2.47656 2.202032,-3.89408 -0.461567,-0.72996 -1.995725,0.55546 -2.598692,2.17736 -0.801706,2.15647 -1.457385,2.66041 -3.524427,2.70885 l -1.809024,0.0424 1.778309,0.23153 c 2.639369,0.34365 3.187927,0.59569 3.75963,1.72739 1.12263,2.22227 2.983609,3.26671 3.486328,1.95666 z m 6.010491,-2.89478 c 0,-1.07399 -1.561051,-2.13525 -2.973318,-2.02137 -1.713083,0.13813 -1.914263,-0.42398 -0.459051,-1.28259 1.940937,-1.14518 2.618053,-2.92114 1.305731,-3.42472 -0.751912,-0.28854 -1.421971,0.14106 -1.639803,1.05134 -0.566173,2.36582 -1.765858,3.78492 -3.578859,4.23339 l -1.222892,0.30248 1.616633,-0.0235 c 2.513912,-0.0363 2.658827,9.5e-4 3.787854,0.98171 1.622089,1.40881 3.163705,1.49806 3.163705,0.18316 z m 88.943981,-17.82082 c 0.32252,-1.62592 0.40032,-1.71796 2.39589,-2.83396 2.53077,-1.41528 3.39522,-2.44843 3.39522,-4.05777 0,-3.60197 -4.03584,-1.31 -5.18086,2.94224 -0.44693,1.65983 -0.96236,1.61582 -0.96236,-0.0822 0,-0.74098 -0.10315,-1.24401 -0.22933,-1.11787 -0.12613,0.12612 -0.18775,0.80511 -0.13694,1.50885 0.1226,1.69816 -0.46478,1.65273 -1.2229,-0.0946 -1.21189,-2.79323 -4.77478,-4.31487 -5.51911,-2.35711 -0.66475,1.7484 1.0176,3.43702 3.87501,3.88945 2.16265,0.34244 2.71276,1.09095 2.89575,3.9401 0.10154,1.58148 0.19881,2.04507 0.2594,1.23661 0.0534,-0.71131 0.2469,-2.04953 0.43023,-2.9738 z m -0.77471,-6.80072 c -0.082,-0.31459 -0.15444,-0.1355 -0.16103,0.398 -0.006,0.5335 0.0604,0.79088 0.14905,0.57199 0.0886,-0.21891 0.094,-0.65541 0.0122,-0.96999 z m -0.23394,-1.6228 c -0.0966,-1.46455 -0.047,-1.57816 1.46487,-3.3492 2.202,-2.57973 1.68188,-5.61756 -0.7468,-4.36165 -1.13837,0.58867 -1.1342,0.57757 -1.16882,3.10343 -0.0134,0.97807 -0.13879,1.77831 -0.27864,1.77831 -0.13987,0 -0.38489,0.2113 -0.54451,0.46957 -0.23837,0.38567 -0.45289,0.30598 -1.20069,-0.44602 -1.59244,-1.60138 -2.10349,-1.82207 -3.39419,-1.46569 -3.56093,0.98323 -1.54903,3.21394 2.90291,3.21863 1.56295,9.5e-4 1.76062,0.0863 2.2633,0.96975 0.6805,1.1959 0.7767,1.20724 0.70257,0.0829 z m -2.5639,-5.93342 c -0.80983,-1.78491 -0.82272,-2.70811 -0.0531,-3.79734 1.63267,-2.3105 0.69611,-4.93845 -1.11467,-3.12768 -0.78164,0.78163 -0.8495,1.0311 -0.67694,2.48813 0.22179,1.87279 -0.0579,1.79507 -1.60504,-0.44594 -0.8212,-1.18951 -0.92807,-1.62539 -0.92807,-3.78514 0,-2.68344 -0.50923,-3.27931 -1.80236,-2.10906 -0.80093,0.72482 -0.79193,1.77738 0.024,2.81475 1.26923,1.61357 0.83652,2.22164 -0.84249,1.18396 -1.92221,-1.188 -4.68778,-0.19734 -3.30613,1.1843 0.44065,0.44066 0.81752,0.47888 2.26414,0.22965 2.32351,-0.40031 3.51844,-0.0316 4.91789,1.51739 1.68272,1.86259 1.53584,2.50767 -0.27961,1.22802 -2.2104,-1.55802 -5.17408,-0.55084 -3.67924,1.25034 0.3455,0.4163 0.84962,0.46878 2.80257,0.29181 l 2.3813,-0.21578 1.10407,1.17066 c 0.60724,0.64385 1.10406,1.33003 1.10406,1.52485 0,0.1948 0.0753,0.27885 0.16741,0.18678 0.0919,-0.092 -0.12298,-0.80744 -0.47789,-1.5897 z M 88.029574,60.667189 c 0,-0.349405 -0.295874,-0.931155 -0.657486,-1.292779 -1.678121,-1.678109 -2.181866,-3.611076 -1.471764,-5.647404 0.124027,-0.355667 -0.132171,0.0086 -0.569324,0.808323 -0.969498,1.774732 -2.011351,2.753569 -3.241212,3.045147 -1.880662,0.445868 -2.439805,2.067566 -0.8484,2.460637 1.067562,0.263683 2.233431,-0.509494 2.795038,-1.853605 0.585108,-1.400363 1.648263,-1.063741 1.379404,0.436774 -0.327028,1.825149 0.848314,3.623014 1.974497,3.020291 0.351589,-0.188155 0.639247,-0.627992 0.639247,-0.977384 z m 1.939975,-4.902682 c 0,-0.603065 -0.401226,-1.458618 -1.081638,-2.306408 -1.495777,-1.863762 -1.598382,-2.322069 -0.848791,-3.791394 0.357645,-0.701042 0.501804,-1.274613 0.320363,-1.274613 -0.181452,0 -0.329909,0.140435 -0.329909,0.312085 0,1.241849 -2.0427,2.597876 -3.913431,2.597876 -2.553867,0 -4.158835,1.40394 -2.574376,2.251912 1.048664,0.56123 2.183758,0.377762 3.258657,-0.526706 0.756672,-0.636698 1.08879,-0.756148 1.273123,-0.457882 0.188546,0.305067 0.297352,0.278564 0.445918,-0.108524 0.41513,-1.08182 0.74892,-0.438458 0.614992,1.185377 -0.121221,1.469494 -0.03174,1.81404 0.665884,2.5655 1.071786,1.154455 2.169208,0.928224 2.169208,-0.447174 z m 3.241749,-4.15496 c 0.400688,-0.748688 -0.0073,-2.347594 -1.026436,-4.018014 -1.21996,-2.000498 -0.769867,-2.977956 2.653602,-5.76274 1.021748,-0.831126 0.993768,-0.824521 -0.342323,0.08094 -0.800241,0.542284 -2.003588,1.450305 -2.674123,2.017821 l -1.21913,1.03183 -2.437858,-0.409624 c -2.648109,-0.444965 -3.570719,-0.179267 -4.334752,1.248344 -0.960574,1.79485 1.857866,2.477117 4.037632,0.977396 1.792348,-1.233169 2.362721,-1.261857 1.607208,-0.08082 l -0.568811,0.889148 0.902846,-0.808309 0.902858,-0.808323 -0.217856,0.808323 c -1.013629,3.761094 1.191639,7.684524 2.717143,4.834088 z m 4.922286,-3.798155 c 0.699709,-0.605324 0.754997,-2.767511 0.110235,-4.310642 -0.800008,-1.91468 0.122747,-4.113355 2.036241,-4.851851 0.42478,-0.163934 0.6935,-0.376895 0.59715,-0.473237 -0.0963,-0.09632 -0.76816,0.127349 -1.492918,0.497091 -1.916653,0.977812 -2.547551,0.92521 -4.934516,-0.411419 -3.224365,-1.805557 -6.285638,-1.443178 -6.032857,0.714141 0.175448,1.497377 4.71741,2.255894 7.130034,1.190724 0.407781,-0.180036 0.56582,-0.104741 0.56582,0.269763 0,0.285778 0.145502,0.519589 0.323329,0.519589 0.567882,0 0.350796,0.664359 -0.691155,2.11525 -2.095741,2.91826 -0.09497,6.889166 2.388637,4.740591 z m 4.122446,-10.089119 c 0.26674,-0.172385 0.33949,-0.313426 0.16165,-0.313426 -0.17783,0 -0.54157,0.141041 -0.80832,0.313426 -0.26675,0.172384 -0.33948,0.31343 -0.16166,0.31343 0.17783,0 0.54157,-0.141046 0.80833,-0.31343 z m 55.98444,122.379637 c 0.28449,-0.35566 1.11276,-1.74185 1.8406,-3.08042 1.61605,-2.97208 2.3117,-3.74824 3.61613,-4.03475 1.58084,-0.3472 1.48207,-0.0635 -0.91872,2.63979 -2.11917,2.38615 -5.66033,5.87841 -4.53801,4.47538 z M 34.062313,131.90585 c -0.887269,-2.31237 -2.662122,-8.56246 -2.482513,-8.74207 0.07239,-0.0724 0.234568,0.19256 0.360341,0.58884 0.125775,0.39627 1.021588,2.04409 1.990697,3.66181 1.569193,2.61943 1.745995,3.09475 1.615692,4.34356 -0.230284,2.207 -0.677042,2.25151 -1.484217,0.14786 z M 95.76791,113.29503 c -3.710909,-2.50079 -0.971379,-9.02882 4.71219,-11.22861 4.76294,-1.84346 13.01643,-0.95878 14.34633,1.53776 2.22837,4.18323 -14.56222,12.72091 -19.05852,9.69085 z m 1.476514,-13.988096 c -0.71132,-0.256272 -1.325946,-0.468123 -1.36584,-0.470808 -1.367378,-0.0918 -1.818558,-11.31348 -0.551939,-13.727973 1.1729,-2.235848 3.969057,-3.397813 6.696305,-2.782724 1.60405,0.361771 1.72476,0.127789 1.98837,-3.85447 0.22066,-3.333159 0.4989,-4.212626 1.33281,-4.212626 1.13618,0 1.43848,0.949783 1.43848,4.519426 v 3.503247 l 2.66746,-0.04333 c 5.57606,-0.0907 6.70905,1.441787 6.70905,9.074318 0,7.108435 -0.6827,8.311696 -4.72194,8.322316 -3.5963,0.0098 -4.7503,-1.473548 -4.90201,-6.299579 -0.12959,-4.122873 -0.24942,-4.593119 -1.13813,-4.466746 -0.6577,0.09351 -0.7353,0.33899 -0.95214,3.01177 -0.56858,7.008809 -2.58591,9.089655 -7.200476,7.427222 z M 118.87386,32.722106 c -0.83056,-0.352103 -2.78365,-2.436378 -2.28303,-2.436378 0.95653,0 11.53143,2.500963 11.53143,2.727182 0,0.322466 -8.4268,0.0575 -9.2484,-0.290804 z m 36.40537,156.636184 c -0.27675,-0.51715 -0.24129,-0.69263 0.17203,-0.85124 0.66506,-0.25521 1.26832,0.33657 1.01528,0.99597 -0.26718,0.69627 -0.77003,0.63497 -1.18731,-0.14473 z m -1.41377,-2.33934 c -2.83034,-4.46388 -3.10991,-5.06984 -2.49164,-5.40072 0.67613,-0.36186 4.10769,4.81808 3.77176,5.69349 -0.24759,0.64528 -0.75959,0.52818 -1.28012,-0.29277 z m -101.387008,0.10001 c -0.406562,-0.25984 -0.408575,-0.41531 -0.0149,-1.15081 0.377127,-0.70466 0.381315,-0.89598 0.02441,-1.11652 -0.577649,-0.35701 -0.09534,-1.07906 0.59944,-0.89737 0.720708,0.18846 3.250965,-3.57114 2.652393,-3.94108 -0.38693,-0.23915 -0.179011,-1.3199 0.253928,-1.3199 1.726856,0 1.711243,1.62261 -0.04175,4.34252 -0.763374,1.18442 -1.10604,1.99783 -0.896241,2.12748 0.494881,0.30586 0.02405,1.28092 -0.518101,1.0729 -0.252439,-0.0969 -0.713261,0.12973 -1.024053,0.50355 -0.401311,0.4827 -0.701287,0.59261 -1.035114,0.37923 z m 106.774968,-1.28587 c -0.25439,-0.40731 -0.61382,-0.56075 -1.04776,-0.44728 -0.69709,0.18229 -0.96739,-0.64487 -0.33787,-1.03394 0.57386,-0.35466 -2.15579,-4.0094 -2.8575,-3.8259 -0.97072,0.25386 -1.16646,-0.81068 -0.22772,-1.23841 1.12939,-0.51459 1.58221,-0.22192 3.08845,1.9961 0.79796,1.17507 1.51727,1.91843 1.76451,1.82354 0.6466,-0.24812 1.20399,0.45771 0.77224,0.97793 -0.26009,0.31339 -0.24834,0.5568 0.0439,0.90889 0.46166,0.55625 0.21809,1.45909 -0.39364,1.45909 -0.22955,0 -0.59161,-0.279 -0.80457,-0.62002 z M 47.658655,184.72911 c -0.263439,-0.31742 -0.248118,-0.58019 0.05823,-0.99918 0.515574,-0.7051 1.333003,0.0343 0.999309,0.90389 -0.245016,0.63851 -0.581567,0.66883 -1.057562,0.0953 z m 1.408543,-2.15813 c -0.415019,-0.67152 3.75,-5.92593 4.278428,-5.39748 0.417949,0.41795 0.247544,0.78989 -1.415977,3.09066 -1.818828,2.51557 -2.429351,3.00758 -2.862451,2.30682 z m 113.606732,-1.69376 c -0.27254,-0.22311 -1.0463,-1.09679 -1.71947,-1.94149 -0.67318,-0.84469 -1.41609,-1.5358 -1.65092,-1.5358 -0.23483,0 -0.52082,-0.15188 -0.63554,-0.3375 -0.32028,-0.51822 0.51306,-1.31659 1.15998,-1.11127 0.39408,0.12508 0.64193,-0.0287 0.78792,-0.48864 0.47605,-1.49986 2.47126,-2.44199 3.58986,-1.69509 1.35485,0.90467 1.1713,2.52849 -0.46049,4.07378 -1.07883,1.02163 -1.03502,1.82201 0.0997,1.82201 0.9226,0 1.54708,-0.73309 1.58914,-1.86555 0.0445,-1.19852 1.01457,-1.36102 1.30144,-0.21802 0.45972,1.83168 -2.70945,4.40464 -4.06167,3.29757 z m 0.42839,-4.00023 c 0.97867,-1.29073 0.88633,-2.06368 -0.24657,-2.06368 -1.03543,0 -1.81622,1.44971 -1.34171,2.49117 0.44,0.96572 0.55548,0.93462 1.58828,-0.42749 z m -117.364045,3.04489 c -0.553197,-0.55319 -0.501876,-0.86353 0.574523,-3.47381 l 0.962504,-2.33412 -1.528335,0.89447 c -0.840575,0.49196 -1.981235,1.16115 -2.534773,1.48709 -0.885524,0.5214 -2.413382,0.0669 -1.707091,-0.50778 1.485841,-1.20904 6.226858,-3.39712 6.751881,-3.11613 0.608606,0.32571 0.591491,0.44085 -0.541392,3.64481 -1.324251,3.74517 -1.439368,3.94342 -1.977317,3.40547 z m 123.620705,-4.89787 c -0.83957,-0.61389 -0.33591,-1.26762 0.7867,-1.02105 1.94674,0.42757 2.58075,-1.67845 1.01114,-3.35873 -1.55852,-1.66841 -3.15094,-1.30729 -3.32196,0.75333 -0.12688,1.52871 -0.78254,1.86162 -1.24918,0.63429 -1.3171,-3.46425 3.60711,-4.99944 5.9475,-1.85425 2.0095,2.70054 -0.61947,6.71449 -3.1742,4.84641 z M 36.862369,172.38045 c -1.351937,-1.35192 -1.257878,-3.43467 0.210129,-4.65301 0.49272,-0.40892 0.734561,-0.27627 2.281258,1.25121 1.823355,1.8007 2.439921,1.88321 2.439921,0.32646 0,-1.09961 -1.227517,-2.09541 -2.201814,-1.78617 -0.971084,0.3082 -1.580412,-0.64531 -0.710051,-1.11111 1.536758,-0.82245 4.205181,0.94677 4.205181,2.78811 0,3.16662 -4.129751,5.27939 -6.224624,3.18451 z m 2.826398,-0.35889 c 0.44422,-0.17047 0.328273,-0.41643 -0.685832,-1.45498 -1.464574,-1.49985 -1.73585,-1.54646 -1.73585,-0.29817 0,1.32545 1.225074,2.21234 2.421682,1.75315 z m 134.669393,-4.48594 c -1.33373,-1.14562 -2.41042,-2.23201 -2.39262,-2.41421 0.0897,-0.91903 0.16131,-1.03482 0.54818,-0.88636 0.25042,0.096 0.43866,-0.10195 0.46806,-0.49237 0.0732,-0.97159 1.36855,-2.1858 2.33187,-2.1858 0.79214,0 5.18775,3.29424 5.18775,3.88791 0,1.06481 -0.96206,0.78073 -2.85285,-0.84239 -2.12253,-1.82205 -2.57608,-2.01386 -3.22573,-1.36422 -0.90028,0.90031 -0.43938,2.09999 1.44019,3.74867 1.28363,1.12597 1.76819,1.75992 1.62678,2.12842 -0.30041,0.78288 -0.49611,0.68416 -3.13163,-1.57965 z M 24.973579,161.35294 c -2.190119,-3.35493 -1.811453,-5.61596 0.940542,-5.61596 0.640957,0 1.024249,-0.19334 1.146422,-0.57825 0.313526,-0.98782 2.947596,-2.99476 3.372663,-2.56969 0.608253,0.60825 0.424567,1.08755 -0.764325,1.99437 -1.354416,1.03305 -1.410363,1.71625 -0.28036,3.4238 1.022577,1.54523 0.943557,1.5372 2.665431,0.27091 1.277545,-0.93951 1.420311,-0.97595 1.908967,-0.4873 0.635927,0.63592 0.83679,0.44494 -3.735264,3.55148 l -3.644487,2.47629 z m 3.938274,-0.99269 c 0.498629,-0.59593 -1.494129,-3.32996 -2.427127,-3.32996 -1.681296,0 -1.930696,1.35953 -0.627321,3.41971 l 0.87677,1.38589 0.926393,-0.54366 c 0.509507,-0.29901 1.072592,-0.71841 1.251285,-0.93198 z m 152.588097,0.64524 c -3.8532,-2.63165 -4.34954,-3.1764 -3.47605,-3.81511 0.29563,-0.21617 0.53752,-0.63824 0.53752,-0.93792 0,-1.86227 2.93038,-2.7076 4.86547,-1.40354 2.44617,1.64847 2.84423,4.21654 0.84276,5.43697 -0.56099,0.34205 -0.87447,0.62319 -0.69664,0.62473 0.81258,0.007 2.19607,1.50492 1.89195,2.04834 -0.26618,0.47563 -0.7764,0.22426 -3.96501,-1.95347 z m 2.57994,-2.07614 c 1.01664,-1.89961 -2.59946,-4.48677 -4.04252,-2.89222 -0.71781,0.79318 -0.45111,1.67976 0.82944,2.75727 1.22267,1.02881 2.70147,1.09091 3.21308,0.13495 z m 5.86664,-4.38056 c -0.29974,-0.12037 -0.0438,-0.84593 0.91365,-2.59049 0.7315,-1.33285 1.28261,-2.46436 1.22469,-2.51449 -1.68672,-1.4597 -2.33447,-1.21652 -3.62905,1.36242 -0.78326,1.56034 -1.37767,2.02321 -1.91197,1.48893 -0.11475,-0.11476 0.31772,-1.21003 0.96091,-2.43404 0.64321,-1.22402 1.11292,-2.27564 1.04381,-2.33696 -1.87903,-1.66705 -2.57232,-1.35981 -4.21973,1.87003 -0.87535,1.7162 -1.01903,1.85323 -1.47022,1.40205 -0.43088,-0.43089 1.41459,-4.78511 2.68267,-6.32952 0.18632,-0.22691 8.21655,4.19987 8.21655,4.52947 0,0.49126 -2.92349,5.77538 -3.17862,5.74527 -0.11903,-0.0141 -0.40369,-0.10073 -0.63269,-0.19267 z M 21.291088,150.53892 c -1.199768,-1.42584 -1.13762,-2.99159 0.167122,-4.21039 1.332978,-1.24518 1.433128,-1.21381 2.423661,0.75943 1.247135,2.4844 1.399228,2.6267 2.115091,1.97884 1.046711,-0.94725 0.417535,-2.68723 -1.01059,-2.7948 -0.953933,-0.0718 -1.531998,-1.13576 -0.774947,-1.42626 0.929996,-0.35688 2.798689,0.89696 3.296318,2.21171 1.227602,3.24342 -3.968428,6.15332 -6.216655,3.48147 z m 2.544846,-0.27743 c 0.102787,-0.16623 -0.133746,-0.96201 -0.525523,-1.76841 -0.790645,-1.62738 -1.563066,-1.55228 -1.563066,0.15193 0,1.19579 1.588678,2.42536 2.088589,1.61648 z m -5.864686,-7.19533 c -1.345454,-0.65047 -1.944417,-3.41022 -0.954886,-4.39975 0.804465,-0.80446 1.440002,-0.0347 0.86239,1.04464 -0.36785,0.68732 -0.350332,0.91912 0.124138,1.64324 0.847899,1.29406 1.316852,0.82844 1.339643,-1.33013 0.02747,-2.60225 0.02295,-2.58933 1.052047,-3.01558 2.424527,-1.00428 4.701355,2.45546 2.992348,4.54698 -0.807333,0.98804 -1.737803,0.38092 -1.065669,-0.69535 0.569372,-0.9117 0.488851,-1.7521 -0.23021,-2.40284 -0.956339,-0.86548 -1.31369,-0.34258 -1.31369,1.92228 0,2.67221 -0.95148,3.58315 -2.806111,2.68651 z m 174.008292,-5.86138 c -1.60047,-0.56603 -3.22202,-1.20795 -3.60344,-1.42649 -2.02849,-1.16223 -1.04636,-5.58423 1.24028,-5.58423 0.84309,0 0.71909,0.80766 -0.21833,1.42189 -1.08688,0.71215 -1.3772,1.9798 -0.63999,2.7944 0.7746,0.85596 1.38446,0.80924 1.22525,-0.0939 -0.17789,-1.00907 0.99439,-2.76823 2.0155,-3.02452 3.07812,-0.77256 6.41787,2.9731 4.42648,4.96448 -0.31119,0.31121 -0.56581,0.85483 -0.56581,1.20806 0,0.93229 -0.62836,0.89024 -3.87994,-0.25974 z m 3.33028,-1.25548 c 1.26178,-1.26179 -0.14881,-3.20201 -2.3738,-3.26508 -2.30082,-0.0652 -2.41573,2.58993 -0.14815,3.42369 0.86507,0.31809 2.12446,0.23889 2.52195,-0.15861 z M 15.387071,134.57265 c -2.327296,-1.01236 -2.395169,-4.32661 -0.112798,-5.50688 1.394175,-0.72097 1.468482,-0.66703 2.111575,1.53246 0.754926,2.58202 0.967361,2.81031 1.820865,1.95681 0.860936,-0.86094 0.602381,-2.25337 -0.495956,-2.67098 -0.716302,-0.27233 -1.35356,-1.22758 -1.032869,-1.54826 0.385051,-0.38504 2.04546,0.56762 2.718693,1.55986 1.932515,2.84825 -1.610112,6.15572 -5.009548,4.67699 z m 1.412632,-1.71112 c -0.09814,-0.48905 -0.345938,-1.32565 -0.550523,-1.85914 l -0.371977,-0.96999 -0.621534,0.76331 c -0.775899,0.95287 -0.77347,1.05797 0.04859,2.10305 0.914748,1.16291 1.732371,1.14254 1.495448,-0.0373 z m 177.200627,-4.5354 c -1.73036,-0.39047 -2.18246,-0.61638 -2.18246,-1.09058 0,-0.72657 0.71079,-0.75284 3.34498,-0.12357 2.11067,0.5042 2.68095,0.40446 2.97443,-0.52023 0.39124,-1.2327 -0.61478,-2.10512 -2.93168,-2.54228 -2.01917,-0.38099 -2.72175,-0.86181 -2.28703,-1.5652 0.1575,-0.25486 4.2133,0.44681 6.38346,1.10435 0.50684,0.15356 0.4952,1.43219 -0.0131,1.43219 -0.11732,0 -0.15917,0.56804 -0.0929,1.26231 0.23606,2.47539 -1.04581,2.97945 -5.19571,2.04301 z M 12.530529,124.93947 c -2.322899,-1.99806 -1.223989,-4.58942 2.184431,-5.15116 1.44104,-0.23747 2.182464,-0.5082 2.182464,-0.79686 0,-0.24046 0.290992,-0.43719 0.646658,-0.43719 0.693901,0 0.949711,1.39116 0.326613,1.77627 -0.186702,0.11536 -0.05201,0.48551 0.323328,0.88836 1.437964,1.54349 0.534251,4.12525 -1.443968,4.12525 -0.914614,0 -1.664035,-0.82388 -2.225288,-2.4464 -0.459553,-1.32848 -1.36898,-1.84682 -1.704797,-0.97171 -0.317457,0.82728 0.14013,2.03437 0.840637,2.21756 0.750153,0.19618 0.909791,1.52388 0.183235,1.52388 -0.256834,0 -0.847827,-0.32759 -1.313313,-0.728 z m 4.963966,-1.45446 c 0.602406,-1.1496 -0.659537,-2.75968 -1.907233,-2.43341 -0.530186,0.13865 -0.535947,0.23527 -0.07935,1.33188 0.70529,1.69407 1.457568,2.11118 1.986631,1.10153 z m 184.023225,-3.96077 c 0,-0.47421 0.21555,-0.64665 0.80831,-0.64665 0.59277,0 0.80832,0.17244 0.80832,0.64665 0,0.47422 -0.21555,0.64665 -0.80832,0.64665 -0.59276,0 -0.80831,-0.17243 -0.80831,-0.64665 z m -5.40626,-0.13312 c -2.6199,-0.43403 -2.77918,-0.51755 -2.47907,-1.29962 0.14138,-0.36843 0.4432,-0.50022 0.89677,-0.39158 0.37601,0.0901 1.88401,0.33586 3.35111,0.54623 2.26237,0.3244 2.66745,0.47505 2.66745,0.99196 0,0.72095 -0.83445,0.74974 -4.43626,0.15301 z M 10.430857,116.00489 c 0,-0.37616 0.153753,-0.68391 0.341664,-0.68391 0.191513,0 0.120488,-0.31582 -0.161664,-0.71861 -0.6848069,-0.9777 -0.6321918,-1.54469 0.143329,-1.54469 0.355666,0 0.646657,0.19569 0.646657,0.43487 0,1.14309 1.129882,1.54687 3.681491,1.31566 2.328929,-0.21105 2.461748,-0.1878 2.461748,0.43092 0,0.54941 -0.271435,0.68419 -1.69747,0.84281 -0.93361,0.10388 -2.534093,0.28289 -3.55662,0.39784 -1.743213,0.19598 -1.859135,0.16637 -1.859135,-0.47489 z m 189.134073,-1.74406 -1.14447,-1.26568 -2.16965,1.19258 -2.16964,1.19259 v -0.8415 c 0,-0.69808 0.30114,-0.9892 1.76671,-1.70799 1.83926,-0.90206 1.99161,-1.71311 0.32178,-1.71311 -1.16491,0 -1.76517,-0.34022 -1.76517,-1.00046 0,-0.65086 0.31493,-0.6515 7.27489,-0.0149 3.47656,0.31799 3.20857,1.17701 -0.36718,1.17701 h -2.63048 l 1.25634,1.49985 c 1.96165,2.34189 1.6225,3.68859 -0.37313,1.4816 z M 11.364648,109.66284 c -2.2027159,-1.19714 -1.7426751,-5.33501 0.593128,-5.33501 0.648611,0 0.482808,1.0942 -0.233603,1.54161 -2.2684179,1.41664 1.150634,3.94929 3.577872,2.65028 0.935427,-0.50064 0.829465,-2.10331 -0.18293,-2.76664 -0.976945,-0.64012 -1.057906,-1.42525 -0.146966,-1.42525 1.088582,0 2.248604,1.42305 2.248604,2.75846 0,2.5183 -3.295475,3.96824 -5.856105,2.57655 z m 183.140332,-3.27622 c -0.11145,-0.29028 -0.0307,-0.80287 0.1792,-1.13908 0.26851,-0.42995 0.28366,-0.79457 0.0511,-1.22923 -0.59715,-1.11575 -0.40004,-2.83854 0.38786,-3.39042 1.65033,-1.155923 3.05114,-0.24675 3.52462,2.28758 0.33883,1.8137 0.46836,1.98051 1.18805,1.52998 0.83419,-0.52221 0.88387,-1.94475 0.0853,-2.44344 -0.69258,-0.43254 -0.92502,-1.55412 -0.32208,-1.55412 1.29209,0 2.4089,1.92999 2.0335,3.51411 -0.391,1.6499 -0.98239,1.98248 -3.52525,1.98248 -1.78195,0 -2.38465,0.11573 -2.52635,0.48498 -0.24596,0.64092 -0.82233,0.61798 -1.07591,-0.0429 z m 3.07989,-3.1096 c -0.38313,-1.71206 -0.752,-2.12143 -1.4918,-1.65554 -1.22577,0.77191 -0.45611,3.02969 1.0328,3.02969 0.73444,0 0.75364,-0.0576 0.459,-1.37415 z M 14.957451,101.56046 c -0.266747,-0.0582 -2.049086,-0.2008 -3.960763,-0.31694 -3.1277058,-0.19005 -3.4757794,-0.27283 -3.4757794,-0.82674 0,-0.526254 0.2438822,-0.615539 1.6813077,-0.615539 1.3076847,0 1.5950867,-0.08618 1.2933157,-0.387992 -1.6205384,-1.620539 0.457294,-3.988007 3.244436,-3.6967 1.07745,0.112554 2.301403,0.204758 2.719889,0.204758 0.562255,0 0.760896,0.180879 0.760896,0.692863 0,0.662698 -0.109013,0.685747 -2.505793,0.529538 -3.059235,-0.199373 -3.314117,-0.118656 -3.314117,1.049507 0,1.229056 1.050777,1.930195 2.901063,1.935775 2.183282,0.006 2.873154,0.26213 2.681911,0.99345 -0.153302,0.58622 -0.752546,0.71575 -2.026366,0.43802 z M 195.48991,96.894016 c -3.39857,-1.371494 -1.76173,-6.145955 2.107,-6.145955 4.13545,0 4.67264,5.295614 0.63495,6.25924 -0.93993,0.224314 -0.81021,0.556335 -1.4277,-3.654156 -0.17655,-1.203829 -0.22959,-1.255431 -0.9522,-0.926186 -1.39273,0.634573 -1.3724,2.398795 0.0384,3.323125 0.42765,0.280199 0.77754,0.724346 0.77754,0.987004 0,0.535593 -0.18008,0.559594 -1.17788,0.156928 z m 3.93503,-1.952487 c 0.67993,-0.7513 0.40194,-2.090358 -0.55917,-2.693569 -0.81844,-0.513652 -0.99597,-0.105962 -0.74585,1.712681 0.24895,1.810073 0.43088,1.94681 1.30502,0.980888 z m -0.82509,-7.932528 c -0.35128,-0.923988 -1.42375,-0.987835 -4.7562,-0.283178 -0.96054,0.203109 -1.84591,-0.468672 -1.31603,-0.99854 0.28221,-0.282215 6.47389,-1.440417 6.75885,-1.264299 0.4266,0.263646 0.35563,1.111839 -0.0931,1.111839 -0.21136,0 -0.0581,0.303931 0.34069,0.675419 0.79672,0.742266 0.77091,1.368819 -0.0632,1.530569 -0.34101,0.06616 -0.66011,-0.216561 -0.8712,-0.77181 z M 14.71496,80.806665 c -4.072253,-1.169935 -4.15452,-1.214919 -3.657844,-1.999791 0.250193,-0.395378 0.686552,-0.357767 2.985831,0.257323 5.720576,1.530338 6.087755,1.670894 6.087755,2.330297 0,0.850121 -0.659916,0.778487 -5.415742,-0.587829 z m 176.91297,0.460908 c -0.58061,-0.499411 -0.89944,-1.121604 -0.95265,-1.859136 -0.044,-0.609669 -0.18797,-1.372909 -0.31994,-1.696055 -0.34291,-0.839622 -0.12557,-0.951431 4.4903,-2.309983 3.39178,-0.998272 4.20977,-1.142724 4.4323,-0.782674 0.34343,0.555663 0.11573,0.757649 -1.40063,1.242251 l -1.21546,0.388443 0.64962,0.825865 c 2.31957,2.948854 -2.76706,6.699953 -5.68354,4.191289 z m 4.26574,-1.343672 c 1.66823,-1.093064 0.29077,-3.427719 -1.72931,-2.931018 -2.18636,0.537571 -3.02023,2.042102 -1.80522,3.257093 0.63293,0.632937 2.30653,0.478536 3.53453,-0.326075 z M 16.816586,75.193748 c -4.144621,-1.643306 -4.48941,-1.926583 -3.684603,-3.027215 0.399456,-0.546299 0.76777,-0.579918 4.203265,-0.383707 2.070997,0.118292 3.76544,0.159992 3.76544,0.09265 0,-0.06726 -1.314593,-1.246696 -2.921326,-2.62085 -2.915307,-2.493328 -3.240992,-3.079254 -2.290281,-4.120325 0.326589,-0.35762 8.768213,3.056377 8.768213,3.54607 0,0.841674 -0.934951,0.745906 -3.733165,-0.382438 -3.598464,-1.451012 -3.606911,-1.416294 -0.330652,1.358969 3.958942,3.353545 3.761949,3.797717 -1.563591,3.525513 l -3.910771,-0.199886 3.331645,1.316595 c 2.445269,0.966325 3.305485,1.451477 3.23329,1.823575 -0.164497,0.847777 -0.592005,0.766182 -4.867464,-0.928994 z M 188.69616,73.11274 c -0.10535,-0.274413 -0.11622,-0.57423 -0.0242,-0.666252 0.092,-0.09204 -0.181,-0.515621 -0.60672,-0.941335 -1.99245,-1.992454 0.0713,-5.006691 3.42788,-5.006691 1.64316,0 2.91131,1.108995 2.91131,2.54592 v 0.95867 l 1.31861,-0.517966 c 1.13257,-0.444891 1.35875,-0.452998 1.60318,-0.0575 0.39553,0.639981 0.31073,0.69213 -4.129,2.538827 -4.49886,1.871305 -4.2475,1.80729 -4.50112,1.146349 z m 3.43819,-2.24581 c 1.92817,-0.997099 1.51761,-3.075151 -0.60758,-3.075151 -2.06123,0 -3.86161,2.206073 -2.72663,3.341056 0.38621,0.386199 2.38079,0.227135 3.33421,-0.265905 z m -7.21579,-5.803903 c -0.12419,-0.32361 0.55498,-0.868066 2.2287,-1.78666 2.54354,-1.395981 2.92348,-2.030455 1.81604,-3.032694 -0.83904,-0.759297 -1.48325,-0.673636 -3.66036,0.486751 -1.82297,0.971647 -3.3408,0.944692 -2.35433,-0.04175 1.76871,-1.768702 6.59041,-3.445896 6.18255,-2.150566 -0.0493,0.156464 0.31686,0.690886 0.81359,1.187611 1.68713,1.68713 1.22801,2.813081 -1.83698,4.504985 -2.58854,1.428904 -2.92645,1.517105 -3.18921,0.832372 z M 24.0716,64.545903 c -0.833213,-0.776265 -0.893359,-1.727184 -0.212337,-3.357098 0.521676,-1.24855 0.415435,-1.803555 -0.345242,-1.803555 -0.768478,0 -1.620355,1.582281 -1.207668,2.243112 0.437397,0.70037 0.0037,1.474743 -0.678409,1.212782 -1.44143,-0.553124 -0.530577,-3.954401 1.225978,-4.57801 0.735553,-0.261132 1.229898,-0.134381 2.946009,0.755389 1.13418,0.588038 2.212898,0.975993 2.397159,0.86211 0.944338,-0.583631 1.421604,0.39251 0.595715,1.218398 -0.451239,0.451239 -0.917396,1.337288 -1.035907,1.968991 -0.370999,1.977646 -2.31295,2.756402 -3.685298,1.477881 z m 2.345667,-1.352669 c 0.644412,-0.920021 0.636074,-1.508742 -0.03174,-2.246724 -0.775215,-0.856591 -1.009869,-0.743867 -1.43999,0.691777 -0.581896,1.942195 0.442475,3.024479 1.471766,1.554947 z m 5.209617,-4.748794 c -0.314979,-0.509628 0.187446,-1.322492 0.817416,-1.322492 1.515933,0 1.947397,-2.522615 0.558606,-3.265883 -0.457844,-0.24503 -0.597412,-0.247862 -0.449885,-0.0086 0.291259,0.471248 -0.645083,2.208748 -1.411252,2.618786 -3.073554,1.644917 -6.95593,-3.075739 -4.407411,-5.35905 0.417669,-0.374197 0.861828,-1.003093 0.987016,-1.397519 0.287464,-0.905701 0.495859,-0.823215 4.022373,1.592157 2.52895,1.732104 3.583377,2.887901 3.583377,3.927874 0,1.761682 -2.991873,4.361437 -3.70024,3.215271 z m -0.687785,-3.447214 c 1.717089,-1.717089 -1.620845,-4.794829 -3.42723,-3.16008 -0.764925,0.692252 -0.745356,1.121774 0.09998,2.196526 1.10632,1.406444 2.485029,1.805716 3.327203,0.963554 z m 149.521891,2.124722 c -0.0223,-0.177826 -0.0586,-0.466023 -0.0808,-0.640432 -0.0222,-0.174397 -0.36665,-0.545603 -0.76539,-0.8249 -2.04647,-1.433397 -1.61267,-2.949354 1.41448,-4.943078 1.9363,-1.275285 3.02878,-1.541812 3.02878,-0.738934 0,0.170222 -0.90822,0.943033 -2.01825,1.717345 -3.9991,2.78963 -2.1523,4.866926 1.96247,2.207429 1.84037,-1.189491 2.00755,-1.239445 2.30266,-0.68803 0.27401,0.511996 -0.0616,0.847337 -2.41614,2.414261 -2.74883,1.829312 -3.35317,2.093117 -3.42777,1.496339 z M 33.826305,48.911424 c -0.91437,-0.763032 -2.068068,-1.706369 -2.563779,-2.096291 -0.805393,-0.633521 -0.849133,-0.761102 -0.411089,-1.199146 0.688212,-0.688213 6.04073,3.514075 5.423394,4.257929 -0.520272,0.626883 -0.565013,0.609302 -2.448526,-0.962492 z m 140.956935,0.298085 c -2.20853,-0.954862 -2.52902,-3.50476 -0.66901,-5.323257 2.98856,-2.921875 7.54811,-0.03405 5.43026,3.439328 -1.04797,1.718748 -3.18631,2.564841 -4.76125,1.883929 z m 2.8082,-1.766235 c 1.78703,-1.265032 1.42022,-3.577775 -0.56743,-3.577775 -0.89422,0 -2.98918,1.903486 -2.98918,2.715958 0,1.635786 1.8351,2.080457 3.55661,0.861817 z M 36.377937,44.643461 c -2.563181,-2.3234 -2.645594,-2.492621 -1.700693,-3.492223 0.353883,-0.374369 1.002007,-1.080795 1.440268,-1.569829 1.155298,-1.289116 1.83345,-1.121103 4.403651,1.091001 2.078053,1.788513 2.252205,2.028648 1.79955,2.481305 -0.452656,0.452655 -0.652981,0.359145 -2.069936,-0.966251 -2.101113,-1.965354 -2.739834,-2.289831 -3.464437,-1.759999 -1.106357,0.808994 -0.713958,2.156889 1.118442,3.841787 1.070088,0.983951 1.62149,1.72722 1.505531,2.029392 -0.285827,0.744881 -0.534153,0.609341 -3.032376,-1.655183 z m -7.698222,0.160993 c -0.394926,-0.639016 0.645803,-1.3858 1.125609,-0.807676 0.222323,0.267882 0.310352,0.638918 0.195638,0.824547 -0.273279,0.44217 -1.043623,0.432342 -1.321247,-0.01685 z M 168.03067,41.888989 c -0.40857,-0.6611 4.58012,-5.324376 5.17117,-4.83385 0.2764,0.229392 0.4228,0.546085 0.32535,0.703769 -0.0974,0.157685 0.10462,0.286695 0.44897,0.286695 0.8891,0 1.572,0.879308 1.07155,1.379744 -0.29426,0.294263 -0.52849,0.291114 -1.01656,-0.01367 -1.09274,-0.682425 -1.7498,-0.445929 -3.39126,1.220583 -1.60531,1.629817 -2.20125,1.916865 -2.60922,1.256767 z M 45.489607,41.566062 c -0.271508,-0.439324 0.428363,-0.922182 1.34637,-0.928883 0.764192,-0.0061 1.747595,-0.943119 1.747595,-1.666085 0,-0.604176 -0.945352,-1.899472 -0.959708,-1.314961 -0.03857,1.571794 -2.814057,2.514289 -4.380897,1.48766 -2.519001,-1.650513 -2.623387,-6.271441 -0.141668,-6.271441 0.201865,0 0.610537,-0.300724 0.908168,-0.668275 0.533397,-0.658718 0.56881,-0.637074 2.476788,1.513429 3.869461,4.361338 4.213069,5.395865 2.395767,7.213179 -1.033357,1.033343 -2.927222,1.388058 -3.392415,0.635377 z m 0.968192,-4.248601 c 0.360697,-1.031701 -0.402946,-2.323184 -1.863627,-3.151797 -2.00637,-1.138169 -2.909949,1.367163 -1.144383,3.173024 1.297417,1.327045 2.539692,1.318281 3.00801,-0.02123 z m 118.323381,1.551943 c -0.0991,-0.258226 -0.0971,-0.603797 0.005,-0.76794 0.10144,-0.16413 -0.36399,-0.386123 -1.03429,-0.493306 -4.74804,-0.759243 -4.50317,-7.064254 0.35314,-9.092861 2.88937,-1.206961 6.06182,1.291995 5.73653,4.518718 -0.0939,0.931825 -0.54925,1.299361 -1.07213,0.865419 -0.26601,-0.220776 -0.38684,-0.754776 -0.30185,-1.333962 0.33194,-2.261533 -2.9653,-3.775429 -4.90305,-2.251196 -2.69863,2.12275 -2.06566,6.114683 0.96957,6.114683 1.82046,0 2.34395,-0.744317 1.14625,-1.629811 -1.11114,-0.821508 -1.14856,-0.901936 -0.72823,-1.565615 0.31591,-0.498783 0.59214,-0.356131 2.58849,1.336765 l 1.04911,0.889626 -1.56119,1.921128 c -1.6554,2.037094 -1.9589,2.238152 -2.24663,1.488352 z M 55.115011,30.276779 c -0.910243,-0.848017 -1.157933,-1.888574 -0.722284,-3.034391 0.3277,-0.861938 -0.161773,-1.751711 -0.988175,-1.796297 -0.484969,-0.02616 -0.910047,-1.666367 -0.625685,-2.414302 1.002288,-2.636201 4.569843,-1.547795 4.114954,1.255405 -0.163081,1.004937 -0.09119,1.132726 0.815281,1.448715 1.298076,0.452513 1.300078,0.451879 0.904896,-0.286523 -0.272632,-0.509425 -0.214462,-0.699632 0.29784,-0.973802 0.564757,-0.30225 0.680216,-0.195283 1.02254,0.947325 0.313977,1.047948 0.598377,1.358169 1.525735,1.664221 1.248867,0.412165 0.616725,1.476981 -0.677384,1.141028 -0.387395,-0.100563 -0.726313,0.149248 -1.048971,0.773208 -0.991898,1.91812 -3.257385,2.543709 -4.618747,1.275413 z m 3.311723,-1.356305 c 0.710797,-1.014789 0.64628,-1.194635 -0.617933,-1.722859 -1.571966,-0.656808 -2.011668,-0.588994 -2.246456,0.34646 -0.475021,1.892658 1.752929,2.963236 2.864389,1.376399 z m -2.789301,-5.020472 c -0.0802,-0.696478 -0.271631,-0.889152 -0.883692,-0.889152 -0.968583,0 -1.19474,0.564316 -0.503268,1.255783 0.837499,0.837504 1.505202,0.661005 1.38696,-0.366631 z m 94.206207,4.165369 c -0.34449,-0.218429 1.77125,-4.509868 3.01377,-6.112948 0.20917,-0.269883 1.1438,0.397278 1.01752,0.726343 -0.0969,0.252384 0.0988,0.350309 0.54724,0.27395 0.93011,-0.158363 1.57595,0.308716 1.32634,0.959203 -0.14821,0.386208 -0.45171,0.47607 -1.1418,0.338055 -1.1788,-0.235761 -1.71249,0.196305 -2.9492,2.387638 -1.00646,1.783346 -1.1165,1.869952 -1.81387,1.427759 z m -6.09535,-2.777569 c -1.8145,-0.789298 -2.27532,-2.631768 -1.21638,-4.863348 0.89442,-1.884828 2.82341,-2.570073 4.6198,-1.641117 3.68302,1.90456 0.40852,8.162632 -3.40342,6.504465 z m 2.63736,-1.655845 c 1.08063,-1.166013 1.34771,-2.599875 0.63165,-3.391111 -0.97316,-1.07533 -2.47885,-0.752543 -3.22558,0.691497 -1.35124,2.612972 0.69784,4.745526 2.59393,2.699614 z m -77.82076,-4.16321 c -0.134565,-6.957497 0.07191,-7.049895 4.580159,-2.049535 1.784608,1.979405 3.244728,3.704344 3.244728,3.833197 0,0.742649 -1.173951,0.555949 -2.090567,-0.332472 -1.181641,-1.145285 -1.176917,-1.144604 -3.027079,-0.438021 l -1.420994,0.542682 0.190486,1.389771 c 0.179097,1.306677 -0.261278,2.051457 -1.21299,2.051457 -0.09192,0 -0.210591,-2.248686 -0.263743,-4.997079 z m 3.055803,-0.412226 c 0.76319,-0.219443 0.717523,-0.368079 -0.573157,-1.865577 l -1.114695,-1.293311 -0.0048,1.893729 c -0.0048,1.677683 0.05969,1.867154 0.56101,1.660789 0.311208,-0.128117 0.820445,-0.30615 1.131651,-0.39563 z m 65.231417,2.843274 c 0,-0.166505 0.43764,-1.439231 0.97251,-2.828281 0.55602,-1.443961 0.83295,-2.572061 0.64665,-2.634161 -0.17921,-0.05974 -0.32585,-0.397292 -0.32585,-0.750116 0,-0.468136 0.15567,-0.592094 0.57601,-0.458683 0.4248,0.134822 0.67208,-0.07167 0.9419,-0.786531 0.37715,-0.999191 1.36126,-1.286134 2.32262,-0.67722 0.56548,0.358167 0.18743,1.001182 -0.58861,1.001182 -0.32443,0 -0.66598,0.290995 -0.75897,0.646655 -0.11279,0.431501 -0.0102,0.646657 0.30931,0.646657 0.28142,0 0.43362,0.232759 0.36959,0.565244 -0.0598,0.310885 -0.39219,0.565504 -0.73847,0.565824 -0.48841,4.51e-4 -0.84135,0.562611 -1.57362,2.506372 -0.84234,2.235898 -2.15307,3.577064 -2.15307,2.203058 z m -13.50989,-0.940547 c -0.54804,-0.347734 -0.14934,-1.353536 0.44599,-1.125091 1.44465,0.554366 1.67794,-1.193301 0.9031,-6.765644 -0.19436,-1.397727 -0.15457,-1.535807 0.44247,-1.535807 0.74949,0 1.04697,0.578877 1.05207,2.047244 0.003,0.563404 0.0956,1.581108 0.20798,2.261562 l 0.20442,1.237193 1.43453,-2.288008 c 1.49086,-2.377864 1.58352,-2.458225 2.30635,-2.00022 0.33904,0.214829 -0.0878,1.062423 -1.88112,3.735296 -3.15602,4.703975 -3.80421,5.265702 -5.11579,4.433475 z M 78.857432,19.696737 c -0.08936,-0.311204 -0.473212,-1.634481 -0.852928,-2.940618 -0.73609,-2.531993 -0.672233,-3.38338 0.242198,-3.228848 0.312427,0.0528 0.927773,-0.156136 1.367465,-0.464294 1.416629,-0.992859 2.899662,-0.58556 3.507012,0.963164 1.002874,2.55725 1.425217,4.697833 0.982292,4.978483 -0.741511,0.46984 -0.811362,0.367323 -1.573467,-2.309209 -0.812791,-2.854499 -0.963407,-3.051564 -2.112081,-2.763264 -1.09238,0.27417 -1.310859,1.492155 -0.676774,3.772852 0.290711,1.045626 0.528562,2.048833 0.528562,2.229348 0,0.565879 -1.241458,0.357003 -1.412279,-0.237614 z m 9.031914,-2.131638 c -1.495545,-1.49555 -0.818344,-3.093343 1.597785,-3.769819 1.223866,-0.342661 1.468054,-0.535612 1.387948,-1.096701 -0.141779,-0.993056 -1.91562,-0.957972 -2.356348,0.04661 -0.444221,1.012545 -1.45913,0.961507 -1.45913,-0.07338 0,-1.048598 1.354572,-1.932725 2.961145,-1.932725 1.651193,0 2.159612,0.602781 2.595128,3.076743 0.201559,1.144996 0.579834,2.25669 0.840599,2.470435 0.980168,0.803427 -0.115117,1.774037 -1.216249,1.077755 -0.321779,-0.203477 -0.645181,-0.150366 -0.991191,0.162776 -1.025007,0.927614 -2.454082,0.943909 -3.359687,0.03831 z m 3.050189,-1.182474 c 1.303362,-1.303363 0.645155,-2.218211 -1.07795,-1.498252 -1.347285,0.562935 -1.690025,1.051825 -1.173596,1.67408 0.547397,0.659566 1.489734,0.585976 2.251546,-0.175828 z m 28.293155,0.973152 c -0.10889,-0.176088 -0.0993,-1.535772 0.0213,-3.021522 0.19503,-2.403749 0.15629,-2.725497 -0.35177,-2.920453 -1.26892,-0.486932 -2.02301,0.57036 -2.26748,3.179202 -0.20755,2.214968 -0.29209,2.436278 -0.93057,2.436278 -0.68929,0 -0.69677,-0.05122 -0.40521,-2.771165 0.32898,-3.068973 0.13769,-3.58545 -1.20332,-3.248877 -0.89748,0.225251 -1.48401,1.697867 -1.49629,3.756745 -0.008,1.438431 -0.41654,2.096253 -1.13018,1.822406 -0.3779,-0.145017 -0.49702,-0.44021 -0.37786,-0.936267 0.0957,-0.398461 0.27546,-1.92483 0.39938,-3.391931 0.21987,-2.6028997 0.85489,-3.544551 1.58916,-2.3564821 0.12276,0.1986221 0.49311,0.1965631 1.0251,-0.00571 0.61087,-0.2322507 1.08826,-0.1892877 1.79075,0.1611571 0.55638,0.277556 1.3494,0.39952 1.89203,0.290992 2.48668,-0.4973348 3.22943,0.596253 2.84549,4.189537 -0.32408,3.032991 -0.7443,3.877923 -1.40055,2.816082 z M 96.770808,16.403881 c -0.184089,-0.343969 -0.336304,-1.107832 -0.338259,-1.697472 -0.0061,-1.925738 -0.387003,-3.497032 -0.847068,-3.497032 -0.602101,0 -0.562695,-0.854749 0.05029,-1.089955 0.336171,-0.1290013 0.431341,-0.434544 0.299279,-0.9607544 -0.136943,-0.5456086 -0.03601,-0.832089 0.344559,-0.978133 0.744745,-0.2857846 1.126536,0.022135 1.126536,0.9085812 0,0.4796093 0.233969,0.8127153 0.646658,0.9206332 0.84206,0.220205 0.831049,0.888617 -0.01831,1.110726 -0.415459,0.108648 -0.597426,0.349832 -0.484994,0.642831 0.099,0.257919 0.179951,1.198153 0.179951,2.089408 0,1.348546 0.108526,1.648843 0.646658,1.789572 0.357884,0.09359 0.646655,0.441024 0.646655,0.778049 0,0.859828 -1.789965,0.84675 -2.251935,-0.01645 z m 5.460332,-0.643041 c -1.0985,-1.098513 -1.29992,-3.250802 -0.45677,-4.881262 1.41719,-2.7405675 5.21095,-1.931769 5.81206,1.239088 0.66781,3.522677 -2.98826,6.009198 -5.35529,3.642174 z m 3.5701,-0.973599 c 0.45747,-0.85477 0.42266,-3.360584 -0.0533,-3.836526 -1.1863,-1.1863045 -3.16861,0.08804 -3.16861,2.036966 0,2.080762 2.36459,3.401475 3.22189,1.79956 z"
       id="path1" /></g></svg>
