<?xml version="1.0" encoding="UTF-8" standalone="no"?>
<!-- Created with Inkscape (http://www.inkscape.org/) -->

<svg
   width="800"
   height="800"
   viewBox="0 0 211.66666 211.66667"
   version="1.1"
   id="svg1"
   xml:space="preserve"
   inkscape:version="1.4.2 (ebf0e940, 2025-05-08)"
   sodipodi:docname="logo-dark.svg"
   xmlns:inkscape="http://www.inkscape.org/namespaces/inkscape"
   xmlns:sodipodi="http://sodipodi.sourceforge.net/DTD/sodipodi-0.dtd"
   xmlns="http://www.w3.org/2000/svg"
   xmlns:svg="http://www.w3.org/2000/svg"><sodipodi:namedview
     id="namedview1"
     pagecolor="#ffffff"
     bordercolor="#000000"
     borderopacity="0.25"
     inkscape:showpageshadow="2"
     inkscape:pageopacity="0.0"
     inkscape:pagecheckerboard="0"
     inkscape:deskcolor="#d1d1d1"
     inkscape:document-units="mm"
     inkscape:zoom="0.99172012"
     inkscape:cx="376.11418"
     inkscape:cy="391.23941"
     inkscape:window-width="2560"
     inkscape:window-height="1381"
     inkscape:window-x="0"
     inkscape:window-y="31"
     inkscape:window-maximized="1"
     inkscape:current-layer="layer1" /><defs
     id="defs1" /><g
     inkscape:label="Layer 1"
     inkscape:groupmode="layer"
     id="layer1"><path
       style="fill:#480081;fill-opacity:1;stroke-width:1.23902"
       d="M 0,105.83333 V 0 H 105.83334 211.66667 V 105.83333 211.66667 H 105.83334 0 Z m 106.11689,97.74749 c 0.11473,-0.83741 0.2087,-2.9787 0.2087,-4.75841 0,-2.50662 -0.10036,-3.23584 -0.44551,-3.23584 -0.52759,0 -0.86716,2.65322 -0.86716,6.77552 0,2.0965 0.10532,2.74126 0.44764,2.74126 0.28378,0 0.52404,-0.55735 0.65633,-1.52253 z m -4.58126,-0.85667 c 0.1016,-1.12806 0.22701,-3.19549 0.27862,-4.59431 0.083,-2.24939 0.0268,-2.54327 -0.48681,-2.54327 -0.4879,0 -0.58098,0.30147 -0.58264,1.88695 -9.9e-4,1.03781 -0.0967,3.10526 -0.21273,4.59431 -0.18136,2.32998 -0.13899,2.70735 0.30402,2.70735 0.39297,0 0.5585,-0.4853 0.69954,-2.05103 z m 23.97265,0.27354 c 2.03812,-0.85158 2.90209,-3.24124 2.14696,-5.9383 -0.81917,-2.92575 -3.42818,-4.18118 -6.07705,-2.92422 -1.59112,0.75503 -2.95528,3.95638 -1.57243,3.69007 0.30701,-0.0591 0.67786,-0.58635 0.83269,-1.18381 0.19965,-0.77045 0.60358,-1.23192 1.41853,-1.62053 2.15777,-1.02897 4.04993,0.4931 4.33784,3.48937 0.19529,2.03248 -0.39663,3.09194 -2.02837,3.63046 -1.20947,0.39916 -2.27645,0.0841 -2.98984,-0.88275 -0.19322,-0.26188 -0.57539,-0.36495 -0.89644,-0.24175 -1.26693,0.48618 0.94487,2.40643 2.80259,2.43316 0.50216,0.007 1.41363,-0.19604 2.02552,-0.4517 z m -39.200785,-0.38492 c 0,-0.10644 0.443023,-2.11063 0.984499,-4.45386 0.541475,-2.34324 0.984498,-4.33964 0.984498,-4.43645 0,-0.0967 -0.360132,-0.0856 -0.800305,0.0248 -0.440162,0.11051 -0.897534,0.0434 -1.016368,-0.14876 -0.387353,-0.62673 -1.751574,-0.96501 -2.596399,-0.64382 -1.68623,0.64111 -2.764373,3.60935 -1.986876,5.47014 0.495346,1.18555 1.540272,1.62861 3.103566,1.31595 0.928223,-0.18564 0.94008,-0.16978 0.644264,0.86168 -0.43285,1.50923 -0.372696,2.20373 0.190871,2.20373 0.270739,0 0.49225,-0.0871 0.49225,-0.19344 z m -2.880469,-3.92724 c -1.31113,-0.91835 -0.674609,-4.40047 0.895487,-4.89879 0.904335,-0.28703 1.937812,0.34904 2.18823,1.34678 0.325874,1.29839 -0.393103,3.23817 -1.364246,3.68064 -1.02577,0.46738 -0.849743,0.48056 -1.719471,-0.12863 z m 30.887124,3.09993 c 1.10493,-0.50345 1.69833,-1.76054 1.65951,-3.51563 -0.0271,-1.22915 -0.21066,-1.64198 -1.07172,-2.41133 -1.38979,-1.24177 -2.745,-1.23131 -4.00728,0.031 -0.81207,0.81206 -0.95926,1.21877 -0.95926,2.65056 0,1.4318 0.14719,1.8385 0.95926,2.65057 1.01971,1.01971 2.08157,1.20443 3.41949,0.59484 z m -2.8834,-1.34944 c -0.28097,-0.40114 -0.51086,-1.25432 -0.51086,-1.89597 0,-1.58352 0.78137,-2.62533 1.969,-2.62533 0.60688,0 1.13085,0.26209 1.45814,0.72936 0.66755,0.95306 0.66467,3.3361 -0.005,4.0056 -0.76545,0.76544 -2.30479,0.65248 -2.91145,-0.21366 z m -15.836762,1.08269 c 0.997879,-0.37938 1.432563,-1.66599 0.562857,-1.66599 -0.324772,0 -0.675498,0.22151 -0.779391,0.49224 -0.226508,0.59025 -1.88243,0.65704 -2.441013,0.0985 -0.216594,-0.21658 -0.393795,-0.6596 -0.393795,-0.9845 0,-0.48001 0.272666,-0.59068 1.455367,-0.59068 1.89866,0 3.029504,-0.45088 3.304581,-1.31755 0.606405,-1.91063 -1.132418,-3.36219 -3.174753,-2.65022 -0.874399,0.30482 -1.109206,0.2823 -1.339071,-0.12847 -0.36014,-0.64352 -1.558793,-0.64803 -1.558793,-0.006 0,0.27073 0.155372,0.49225 0.345286,0.49225 0.231948,0 0.271869,0.90481 0.121678,2.75665 l -0.223679,2.75667 0.944916,0.51186 c 1.093165,0.59214 2.050465,0.663 3.17587,0.23512 z m -2.723183,-4.17076 c 0,-1.54609 2.326349,-2.4202 3.304482,-1.24163 0.699528,0.84287 -0.04035,1.58806 -1.779931,1.79248 -1.410764,0.16581 -1.524551,0.12468 -1.524551,-0.55085 z m -15.269964,-0.57271 c 1.940376,-1.94037 1.7811,-4.92905 -0.315723,-5.92405 -1.426581,-0.67696 -1.874356,-0.65086 -2.917959,0.17003 -1.147962,0.90298 -1.842608,2.29765 -1.842608,3.69947 0,2.39961 3.368057,3.76279 5.07629,2.05455 z m -3.609777,-0.75354 c -0.397395,-0.3974 -0.497026,-0.87185 -0.360173,-1.71517 0.387751,-2.38944 2.373983,-3.72506 3.646782,-2.45227 0.718291,0.71828 0.520085,3.129 -0.334942,4.07379 -0.712832,0.78766 -2.210142,0.83518 -2.951667,0.0936 z m 66.737756,-0.27587 c 0.53939,-0.45388 1.03067,-0.68011 1.09171,-0.50276 0.0611,0.17736 0.30103,0.20435 0.5333,0.06 0.3299,-0.20504 0.20265,-0.85819 -0.58158,-2.98516 -1.247,-3.38202 -1.39749,-3.65085 -1.87764,-3.35411 -0.28353,0.17525 -0.1618,0.86981 0.45653,2.60456 0.79833,2.23977 0.81439,2.40953 0.30176,3.19189 -0.583,0.88977 -1.86733,1.1123 -2.40144,0.41609 -0.17308,-0.22561 -0.6572,-1.29625 -1.07585,-2.3792 -0.89203,-2.30756 -1.03325,-2.51093 -1.52864,-2.20145 -0.26119,0.16317 -0.0807,0.96616 0.60548,2.6937 0.53768,1.35367 1.13055,2.64584 1.31749,2.87145 0.55657,0.67173 2.10988,0.46765 3.15888,-0.41503 z M 69.460263,191.5066 c 1.097232,-2.50535 1.264195,-3.13057 0.875811,-3.27962 -0.342952,-0.13159 -0.753877,0.42019 -1.440253,1.93396 -0.991833,2.18745 -1.860267,2.97719 -2.908111,2.64462 -0.367273,-0.1166 -0.676689,-0.005 -0.787296,0.28283 -0.216284,0.56361 0.440867,0.87957 1.340251,0.64437 0.399903,-0.10457 0.717925,0.0279 0.841767,0.35062 0.369072,0.96179 0.717145,0.53012 2.077831,-2.57678 z m 80.176187,0.63783 c 2.71654,-1.40478 1.12614,-6.73099 -2.00986,-6.73099 -0.48747,0 -1.34067,0.38231 -1.89598,0.84958 -0.81451,0.68536 -1.00968,1.10083 -1.00968,2.14937 0,3.21292 2.39826,5.03376 4.91552,3.73204 z m -2.4733,-0.74701 c -2.07825,-1.4432 -1.7753,-4.99948 0.42591,-4.99948 1.72336,0 3.10287,3.49891 1.86684,4.73496 -0.54076,0.54075 -1.70204,0.67474 -2.29275,0.26452 z m -84.95649,-0.54716 c 0.904042,-0.66725 0.196338,-1.41339 -0.768851,-0.81062 -0.550899,0.34404 -0.806805,0.31961 -1.515435,-0.1447 -0.860858,-0.56406 -1.135961,-1.64232 -0.516665,-2.02508 0.184768,-0.11423 0.990572,0.0423 1.790678,0.34796 2.368491,0.90453 4.126989,-0.066 3.639426,-2.00857 -0.235278,-0.93742 -1.937694,-1.8986 -3.002304,-1.69508 -0.581138,0.11114 -0.785213,-0.0172 -0.86034,-0.54073 -0.05417,-0.3775 -0.37118,-0.73838 -0.704467,-0.80194 -0.483187,-0.0922 -0.561685,0.024 -0.387391,0.57315 0.148334,0.46736 -0.112279,1.26701 -0.810851,2.48799 -1.292722,2.25945 -1.220774,3.32137 0.293964,4.33881 1.292723,0.86829 1.95546,0.93331 2.842236,0.27881 z m -1.085857,-3.54289 c -1.19167,-0.38888 -1.254664,-0.52672 -0.630739,-1.37998 0.878528,-1.20146 3.308581,-0.47109 3.107816,0.93407 -0.114262,0.79976 -0.938308,0.94811 -2.477077,0.44591 z m 54.721577,3.35576 c 15.46238,-1.97469 29.54639,-7.75892 42.09286,-17.2873 4.3113,-3.27421 12.16639,-11.12929 15.44059,-15.44061 8.21144,-10.81236 13.55698,-22.52601 16.13911,-35.36546 2.1624,-10.75235 2.30738,-20.82826 0.4565,-31.725928 C 187.67261,77.308736 182.00475,64.415168 173.3688,53.075105 170.05906,48.729026 162.21229,40.877517 157.93524,37.632232 148.73094,30.648307 138.91426,25.764372 128.15238,22.814864 104.79631,16.413683 79.430561,20.275167 59.217996,33.308901 48.91123,39.955044 39.222883,49.76544 32.643328,60.218354 c -2.301256,3.655983 -5.950331,11.098442 -7.499401,15.295356 -2.262256,6.129162 -3.947698,13.069905 -4.852389,19.982422 -0.526106,4.019841 -0.526106,15.998238 0,20.018078 2.606666,19.91688 10.792074,36.69836 24.654137,50.54521 6.574419,6.5672 12.745252,11.17481 20.367768,15.20812 10.090072,5.33897 21.086693,8.59461 32.808006,9.7131 3.750141,0.35785 13.849621,0.1769 17.720931,-0.31751 z M 99.926355,186.84849 C 79.332814,185.13906 61.357735,176.74025 47.242764,162.2322 41.278036,156.10137 36.707613,149.80538 33.038981,142.66574 21.173833,119.57462 21.046307,92.550936 32.691908,69.118047 40.308432,53.792323 53.516568,40.5114 68.750649,32.860599 80.685562,26.8667 92.131873,24.155804 105.50517,24.155804 c 10.66605,0 19.38266,1.57919 28.93909,5.242929 21.59408,8.278711 38.88671,25.547475 47.12884,47.063804 3.70433,9.67025 5.28896,18.371773 5.28896,29.042623 0,10.67086 -1.58463,19.3724 -5.28896,29.04265 -4.02625,10.51064 -9.61948,19.22959 -17.6545,27.52057 -12.97058,13.38379 -28.86614,21.46205 -47.58397,24.18259 -3.31592,0.48196 -13.38369,0.84859 -16.408275,0.59752 z m 16.572095,-4.87847 c 5.52067,-0.80338 16.40853,-3.6872 16.40853,-4.34605 0,-0.87719 -3.07871,-7.59305 -4.52296,-9.86632 -6.15836,-9.69332 -8.08397,-13.37989 -14.35665,-27.48599 -1.12831,-2.53734 -2.72042,-5.86002 -3.53803,-7.38371 -0.8176,-1.52372 -2.09791,-4.24713 -2.84515,-6.05204 -0.74723,-1.8049 -1.48166,-3.57699 -1.63206,-3.93798 l -0.27346,-0.65634 -0.23404,0.65634 c -0.12872,0.36099 -1.83364,3.979 -3.78871,8.04005 -1.955069,4.06105 -5.601457,11.66629 -8.103084,16.90051 -2.853887,5.97129 -5.692536,11.3507 -7.61942,14.43928 -4.754484,7.62089 -5.783216,9.50436 -6.589507,12.06441 -0.411378,1.30617 -0.893332,2.56304 -1.071019,2.793 -0.177676,0.22998 -0.265089,0.47159 -0.194254,0.5369 0.07088,0.0652 1.753223,0.63901 3.738626,1.27488 4.502728,1.44212 10.202425,2.70567 14.275199,3.16466 1.714664,0.19322 3.634433,0.41168 4.266139,0.48546 2.29691,0.26824 12.72085,-0.13826 16.07985,-0.62706 z m -21.166408,-0.78107 c -1.471378,-0.31215 -1.466267,-1.55423 0.01943,-4.72028 l 1.221856,-2.60374 -0.382398,-9.23932 c -0.210308,-5.08162 -0.539015,-10.96911 -0.730473,-13.0833 l -0.348076,-3.84401 1.13763,-2.55522 c 2.588912,-5.81498 7.767179,-16.62071 8.126969,-16.9589 0.29688,-0.27906 0.33797,1.24106 0.17645,6.52771 -0.11585,3.7903 -0.34284,11.76472 -0.50451,17.72091 -0.16167,5.95621 -0.48196,13.38313 -0.71174,16.50426 -0.38731,5.26094 -0.3734,5.85302 0.19084,8.11889 0.76241,3.06164 0.4921,3.89856 -1.35787,4.20421 -1.54022,0.25448 -5.497152,0.21326 -6.838145,-0.0712 z m 19.693398,-1.25204 c -4.24989,-0.33903 -6.05541,-0.6084 -6.44579,-0.96169 -0.46644,-0.42213 -0.51912,-1.05032 -0.37668,-4.49204 0.0911,-2.20069 -0.006,-6.14254 -0.21663,-8.75967 -0.21021,-2.61712 -0.51574,-9.18863 -0.67894,-14.60335 -0.16321,-5.41474 -0.39589,-12.94613 -0.51709,-16.73643 -0.15703,-4.91047 -0.11895,-6.79715 0.13254,-6.56332 0.1941,0.18049 1.00842,1.80491 1.80961,3.60982 0.80118,1.80491 2.82091,6.1613 4.48828,9.68088 l 3.03159,6.39923 -0.37442,6.23513 c -0.82536,13.74422 -1.04697,20.17498 -0.71656,20.79236 0.36101,0.67455 2.81696,1.92282 5.56096,2.82643 2.24377,0.73888 3.14558,1.57775 2.66385,2.47789 -0.40302,0.75303 -0.14571,0.75012 -8.36072,0.0947 z m -45.290296,-9.19899 c 1.624419,-0.4109 3.322675,-1.01888 3.773902,-1.35103 0.90817,-0.66854 1.320147,-1.68553 6.136881,-15.14917 1.71117,-4.783 3.481789,-9.72096 3.934699,-10.97322 1.030517,-2.84921 4.589262,-16.92884 6.24058,-24.68975 l 1.244691,-5.84994 -0.04264,-8.86047 C 90.975334,93.909556 90.498637,86.564189 89.79047,84.869299 89.01214,83.006486 88.022239,82.592727 83.718893,82.331518 67.701101,81.359223 57.134262,80.549773 56.049527,80.21193 c -0.307443,-0.09577 -1.341165,0.05885 -2.297159,0.343504 -2.006009,0.597356 -6.992861,1.023269 -8.259347,0.705398 -0.547123,-0.13732 -0.862544,-0.441201 -0.862544,-0.830985 0,-0.38454 -0.312275,-0.692883 -0.834465,-0.823946 -0.458956,-0.115229 -0.929747,-0.463467 -1.0462,-0.77394 -0.116456,-0.310486 -0.442399,-0.740078 -0.724321,-0.954664 -1.000139,-0.761252 0.312391,-1.429926 3.889653,-1.981598 3.224542,-0.497293 3.888698,-0.906404 1.835711,-1.130778 -1.070383,-0.116963 -1.552572,-1.127989 -0.773468,-1.621738 0.746782,-0.473256 5.54154,-0.320919 7.538925,0.239514 1.635662,0.458945 2.892179,0.49194 9.374243,0.246131 l 7.485402,-0.283858 -6.339943,-2.935284 c -3.486969,-1.614403 -6.801415,-3.275741 -7.365436,-3.691852 -0.564022,-0.416125 -1.381125,-0.756595 -1.815787,-0.756595 -0.977869,0 -6.526277,-1.83247 -7.532453,-2.487749 -0.406105,-0.264482 -0.738373,-0.798101 -0.738373,-1.185828 0,-0.387738 -0.241635,-0.971972 -0.536968,-1.298317 -0.743053,-0.82106 -0.900994,-2.876591 -0.240504,-3.130044 0.278652,-0.106928 1.987843,0.202777 3.798201,0.688237 3.288794,0.881896 4.436698,0.97222 2.579519,0.20295 -1.068578,-0.442626 -1.608714,-1.50636 -1.049064,-2.066013 0.698831,-0.69883 5.256874,1.180376 7.376021,3.04101 0.617085,0.54181 1.208858,0.985118 1.31505,0.985118 0.106196,0 1.04658,0.390799 2.089753,0.868453 2.341416,1.072097 11.09982,4.308969 20.378508,7.531358 7.681969,2.667854 7.545397,2.647708 15.025091,2.216666 l 3.643858,-0.209976 0.37616,-2.041482 c 0.50356,-2.732913 0.52257,-2.645935 -0.68797,-3.147365 -1.5926,-0.659678 -3.472914,-2.508169 -4.451793,-4.376422 -1.176794,-2.246019 -1.250899,-6.198325 -0.154934,-8.263185 1.098275,-2.06921 2.169761,-3.18217 4.084927,-4.24303 1.53374,-0.849583 2.07447,-0.968602 4.37533,-0.963052 2.20413,0.005 2.89507,0.147629 4.30663,0.886927 4.5306,2.372881 6.49667,7.63411 4.57315,12.237743 -0.69713,1.66845 -2.99537,3.97456 -4.63152,4.647372 -1.60346,0.659356 -1.61408,0.696265 -1.02212,3.552376 l 0.4081,1.968985 3.10537,0.209394 c 8.33046,0.561721 7.72991,0.665501 17.57623,-3.037465 4.85588,-1.826176 10.97015,-4.104594 13.58727,-5.063135 12.23755,-4.482111 12.77224,-4.764223 14.16021,-7.471094 0.49134,-0.958256 0.81041,-1.227172 1.36276,-1.148582 0.58869,0.08376 0.71905,0.313658 0.70947,1.251197 -0.006,0.631714 -0.1213,1.462291 -0.25515,1.845717 -0.21514,0.616151 -0.0715,0.740449 1.237,1.069917 1.57891,0.397563 2.74618,1.634178 2.26791,2.402616 -0.14534,0.233555 -0.22319,0.742805 -0.17299,1.13167 0.0502,0.388865 -0.0651,0.803689 -0.25624,0.921818 -0.19116,0.118077 -0.35247,0.464507 -0.35847,0.769714 -0.0136,0.689377 -0.93862,1.82329 -1.73674,2.128881 -0.32947,0.126157 -1.62733,0.01499 -2.88407,-0.24706 l -2.28501,-0.47644 -7.19455,3.646294 c -3.95699,2.005462 -7.13032,3.750211 -7.05182,3.877222 0.0785,0.127012 3.41943,0.303721 7.42432,0.39267 5.56217,0.12353 7.63007,0.05687 8.75743,-0.282422 1.63053,-0.490726 6.53249,-0.594939 7.22877,-0.1537 0.77909,0.493749 0.2969,1.50475 -0.77347,1.621738 -2.05299,0.224374 -1.38883,0.633485 1.83571,1.130778 3.57726,0.551672 4.88979,1.220346 3.88965,1.981598 -0.28192,0.214586 -0.60787,0.644178 -0.72433,0.954664 -0.11646,0.310473 -0.58724,0.658749 -1.04618,0.77394 -0.5222,0.131063 -0.83447,0.439406 -0.83447,0.823946 0,0.389784 -0.31543,0.693665 -0.86254,0.830985 -1.22533,0.307538 -6.23255,-0.09862 -8.08252,-0.655675 -0.90297,-0.271878 -2.35593,-0.413423 -3.44574,-0.335675 -7.0044,0.499647 -20.73146,1.495011 -24.85598,1.802325 -6.04668,0.450532 -7.36289,0.916266 -8.15017,2.883877 -0.76245,1.905548 -1.53056,12.416362 -1.53064,20.945376 -7e-5,7.89936 0.25271,9.48623 3.78129,23.73745 2.26529,9.14898 2.80992,11.00847 4.6098,15.73875 0.78979,2.07565 2.82487,7.68728 4.52242,12.47028 1.69753,4.78302 3.31432,9.24037 3.59288,9.9052 0.60161,1.43599 1.41985,1.89342 5.15246,2.88044 1.53417,0.40568 2.9666,0.88181 3.18317,1.05807 0.27376,0.22282 1.1205,-0.14965 2.77846,-1.22217 2.89665,-1.87384 7.07588,-5.03123 8.07065,-6.09735 3.31405,-3.55176 6.31397,-8.60326 6.31397,-10.63197 0,-0.57519 -0.33226,-1.49513 -0.73837,-2.04429 -0.4061,-0.54916 -1.25523,-1.68829 -1.88695,-2.5314 -2.02721,-2.70558 -2.46995,-4.85834 -1.23062,-5.98371 1.28192,-1.164 2.27204,-1.18506 3.61644,-0.0769 1.29521,1.06761 1.53036,1.78864 1.65134,5.06319 0.0401,1.08295 0.20421,2.04283 0.36491,2.13309 0.47715,0.26797 2.1317,-4.93199 2.14713,-6.74805 0.0124,-1.40569 -0.12482,-1.78699 -0.88834,-2.4769 -0.49635,-0.44848 -1.31543,-1.0216 -1.82017,-1.27359 -1.60346,-0.80051 -3.42659,-2.57929 -3.60976,-3.52196 -0.0981,-0.50495 0.0471,-1.38643 0.32566,-1.97757 0.4146,-0.87963 0.6886,-1.06653 1.56345,-1.06653 1.23649,0 2.76826,0.6965 3.63287,1.65189 0.33463,0.36975 0.86167,1.663 1.1712,2.87389 0.34865,1.36388 0.64221,2.00386 0.77149,1.68192 0.40372,-1.00539 0.69674,-5.12703 0.43602,-6.13319 -0.32953,-1.27169 -1.6883,-2.37168 -2.92968,-2.37168 -1.01237,0 -1.96829,-0.44047 -3.15091,-1.45191 -0.52854,-0.45203 -0.73836,-0.99057 -0.73836,-1.89506 0,-1.05826 0.13839,-1.31621 0.85173,-1.58742 0.89824,-0.34151 2.77575,0.0459 3.77962,0.78001 0.2888,0.21118 0.90858,1.12155 1.37732,2.02305 l 0.85223,1.63908 0.0152,-1.57754 c 0.0184,-1.90601 -0.55637,-4.34287 -1.13837,-4.82589 -0.23341,-0.19372 -1.36148,-0.4048 -2.50682,-0.46907 -2.47256,-0.13873 -3.72127,-0.57227 -4.19436,-1.45623 -0.7052,-1.31769 0.4787,-2.33664 2.71486,-2.33664 0.69626,0 1.47674,0.34974 2.30609,1.03336 l 1.25362,1.03335 -0.81521,-1.60765 c -1.30182,-2.56719 -1.80389,-2.87497 -4.26051,-2.61189 -1.39248,0.14911 -2.37916,0.0902 -2.96597,-0.17719 -1.5866,-0.7229 -0.88708,-2.42223 1.12123,-2.72379 0.92047,-0.13823 1.42192,9.9e-4 2.27889,0.63338 0.60429,0.44583 1.14904,0.81062 1.21057,0.81062 0.28063,0 -0.60368,-1.2367 -1.48157,-2.07198 -1.05743,-1.00611 -2.47433,-1.22153 -4.804,-0.73036 -1.12218,0.23659 -1.36483,0.17635 -1.88695,-0.46842 -0.73176,-0.90371 -0.74246,-1.13339 -0.0835,-1.79236 0.70629,-0.7063 2.43012,-0.63546 3.4223,0.14063 1.01471,0.79372 1.93197,0.91032 1.31525,0.16719 -0.22327,-0.26902 -0.59619,-1.04249 -0.8287,-1.71881 -0.54071,-1.5728 0.0809,-3.04269 1.2866,-3.04269 1.25463,0 1.57315,0.70112 1.32301,2.91214 -0.20019,1.76945 -0.13251,2.13408 0.64105,3.45409 1.1643,1.98671 1.34935,2.02805 1.34935,0.3014 0,-1.20256 0.1669,-1.61737 0.90683,-2.25385 1.01201,-0.87048 1.7379,-0.7691 2.09706,0.29288 0.34434,1.01816 0.1672,1.83539 -0.73619,3.39622 l -0.79611,1.37551 0.66994,1.74207 c 0.36846,0.95814 0.96131,2.25892 1.31747,2.89065 l 0.64755,1.14857 -0.0314,-1.64082 c -0.0564,-2.94592 -0.0128,-3.10305 1.0368,-3.74136 1.22308,-0.7438 2.06746,-0.57791 2.55993,0.50296 0.63435,1.39223 0.41963,2.35706 -0.84828,3.81174 -2.30138,2.64039 -2.17762,2.32382 -1.79168,4.58274 0.19391,1.13495 0.4456,2.64775 0.55932,3.36177 l 0.20675,1.2982 0.5692,-1.68136 c 0.62346,-1.84164 1.98846,-3.82717 3.00513,-4.37128 1.07893,-0.57743 2.41886,0.26969 2.54738,1.61048 0.16673,1.73964 -0.47498,2.79066 -2.44716,4.00808 -3.5826,2.21153 -3.33948,1.81353 -3.89131,6.36996 -0.0656,0.54148 -0.22256,1.72288 -0.34886,2.62534 l -0.22963,1.64082 1.55295,-2.3287 c 2.23207,-3.34708 4.03929,-4.21133 5.64732,-2.70067 0.90648,0.8516 0.96636,1.93028 0.18523,3.33706 -0.8074,1.45414 -1.21022,1.70802 -4.2628,2.68662 l -2.70404,0.86685 -0.95765,2.0229 c -0.52672,1.11261 -1.17913,2.76129 -1.44981,3.66374 -0.2707,0.90246 -0.7273,2.18986 -1.01469,2.86091 -0.59411,1.38727 -0.62486,1.56932 -0.26509,1.56932 0.14157,0 0.53123,-0.47993 0.8659,-1.06654 0.88168,-1.54536 4.01885,-4.51227 4.77122,-4.51227 1.04842,0 1.88283,-1.20001 4.56369,-6.56331 3.85748,-7.71723 6.42391,-16.10156 7.63424,-24.94056 0.54991,-4.01611 0.54991,-15.01749 0,-19.033598 -3.12626,-22.831157 -15.21648,-42.24864 -34.13944,-54.829654 -5.45776,-3.628613 -15.50984,-8.479852 -16.65793,-8.039294 -0.24535,0.09417 -1.21997,0.02293 -2.16581,-0.158321 -0.94585,-0.18122 -3.19837,-0.330955 -5.0056,-0.332739 -4.82499,-0.005 -5.53889,0.465895 -6.86592,4.526603 -0.33884,1.036836 -1.15141,2.371085 -2.05843,3.379893 -1.35547,1.507613 -1.59614,1.646197 -2.52015,1.451076 -1.34608,-0.284231 -2.49831,-1.376165 -2.49831,-2.367565 0,-1.627562 0.96624,-2.893504 3.4473,-4.516543 1.34126,-0.877423 2.37328,-1.660656 2.2934,-1.740536 -0.27542,-0.27542 -5.17884,0.667646 -6.56844,1.263303 -1.97502,0.846597 -2.45391,1.68478 -2.45391,4.295007 0,2.989317 -0.26732,4.083815 -1.23343,5.049903 -1.07117,1.07118 -3.00178,1.147269 -3.62895,0.14302 -1.27121,-2.035521 -0.63715,-4.645277 1.62211,-6.676549 0.91873,-0.826028 1.50341,-1.501862 1.29929,-1.501862 -0.20414,0 -1.48168,0.466155 -2.839,1.035905 -3.673564,1.542033 -4.734937,3.116193 -3.586209,5.318795 0.643149,1.23317 0.625295,3.479547 -0.03517,4.422452 -1.346204,1.921977 -3.101257,1.442812 -3.766682,-1.028372 -0.423406,-1.572389 -0.257025,-2.348807 0.854213,-3.986306 0.464732,-0.684805 0.797305,-1.292741 0.739081,-1.350976 -0.140806,-0.140814 -2.857403,1.690603 -3.751608,2.529184 -1.057298,0.991536 -1.108667,1.721281 -0.241721,3.433727 1.159976,2.291217 1.46809,3.647323 1.041477,4.583649 -0.500937,1.099442 -1.626183,1.014408 -2.856448,-0.215863 -1.07978,-1.079766 -1.237198,-1.975379 -0.685411,-3.899338 0.279929,-0.976086 0.26097,-1.065617 -0.138565,-0.654164 -0.254578,0.262176 -0.845404,1.203632 -1.312947,2.092119 -0.965196,1.834205 -0.887831,2.448337 0.510389,4.05144 1.692728,1.940773 1.727867,3.789115 0.07508,3.950127 -0.82562,0.08041 -1.165037,-0.09144 -1.720178,-0.87108 -0.394838,-0.554485 -0.703057,-1.512804 -0.718271,-2.233268 l -0.02664,-1.262002 -0.450793,0.984486 c -0.885947,1.934851 -0.576032,3.289879 1.227112,5.365246 1.085206,1.249029 1.095242,2.209901 0.03048,2.913328 -0.662181,0.43746 -0.793851,0.407253 -1.558785,-0.35768 -0.674433,-0.674434 -0.835494,-1.154703 -0.835494,-2.491244 0,-0.910653 -0.147678,-1.655749 -0.328166,-1.655749 -0.1805,0 -0.328167,0.210187 -0.328167,0.467073 0,0.256886 -0.382311,0.92142 -0.849594,1.476748 -0.639742,0.760299 -1.123207,1.009675 -1.957438,1.009675 -2.370973,0 -2.093978,-2.638216 0.324635,-3.091956 1.248955,-0.234299 2.550866,-1.572141 3.327581,-3.419393 0.480021,-1.141631 0.319605,-1.301341 -0.532518,-0.530188 -1.332551,1.205949 -3.922483,0.886542 -3.922483,-0.483725 0,-1.249413 0.820912,-1.761364 3.145038,-1.961353 l 2.257601,-0.194265 1.564831,-2.099368 c 0.860646,-1.154653 1.564831,-2.222043 1.564831,-2.371977 0,-0.149933 -0.693455,0.167169 -1.540993,0.704667 -1.878016,1.190994 -2.83009,1.230346 -3.899301,0.161135 -0.76881,-0.768823 -0.787879,-0.870782 -0.328724,-1.758687 0.714419,-1.38153 2.061478,-1.837042 4.124258,-1.394664 2.594728,0.556468 3.043389,0.459676 4.797207,-1.035039 0.900053,-0.767088 1.998797,-1.63709 2.44162,-1.933351 0.771202,-0.515939 0.687544,-0.532481 -1.984251,-0.392248 -3.187307,0.16728 -4.234332,-0.197834 -4.746901,-1.655291 -0.291602,-0.829176 -0.220149,-1.017345 0.650881,-1.714268 1.473294,-1.178778 3.008903,-1.0395 5.87354,0.532703 2.582038,1.417103 2.455299,1.415492 5.442113,0.06938 0.99269,-0.447386 2.54328,-1.079644 3.44573,-1.405011 l 1.64083,-0.591581 -1.64083,-0.04609 c -2.63094,-0.07396 -3.709333,-0.283723 -5.096303,-0.991302 -1.217393,-0.62107 -1.302914,-0.758551 -1.302914,-2.094584 0,-1.586798 0.383334,-2.062767 1.906619,-2.367429 1.850598,-0.370107 3.082208,0.137258 5.299368,2.183137 2.46423,2.273834 2.6869,2.312095 7.56145,1.299359 1.71467,-0.356243 3.51495,-0.649655 4.00066,-0.652021 1.76785,-0.0087 1.17984,-0.577234 -0.80918,-0.782466 -3.14264,-0.32425 -4.53314,-0.82604 -5.80023,-2.093122 l -1.16278,-1.162793 -4.92366,0.213618 C 91.543451,29.174038 81.763498,31.626574 71.704104,36.568473 51.120301,46.680718 36.2969,65.128161 30.828883,87.436892 c -1.620527,6.611521 -2.08467,10.741007 -2.067702,18.396408 0.01497,6.75209 0.673803,13.52796 1.400531,14.40388 0.165901,0.19996 0.684041,1.37959 1.151422,2.6214 0.467382,1.2418 1.439865,3.14149 2.161074,4.22151 0.721209,1.08001 1.312223,2.05759 1.313363,2.17239 0.0044,0.43374 2.060745,1.35731 3.022213,1.35731 0.551159,0 1.90518,-0.164 3.008936,-0.36443 2.667519,-0.48443 5.369682,0.12507 6.064496,1.36791 0.772569,1.38192 0.272886,3.03216 -1.11912,3.69595 -1.641261,0.78266 -2.101088,0.71158 -4.95715,-0.76637 -1.400395,-0.72466 -2.663974,-1.27832 -2.807956,-1.23032 -0.483645,0.16121 3.060053,4.15232 4.581823,5.1603 1.856894,1.22997 2.510958,1.24326 4.364596,0.0887 2.993673,-1.86457 5.185966,-2.25015 6.495167,-1.14234 1.596555,1.35095 0.97736,3.34962 -1.385025,4.47064 -1.434076,0.68052 -2.565826,0.66068 -4.717727,-0.0828 -0.947578,-0.32735 -1.722869,-0.49915 -1.722869,-0.38178 0,0.11733 1.026532,0.9938 2.281183,1.94764 1.584728,1.20478 2.685089,1.78842 3.604143,1.91169 1.236633,0.16587 1.422119,0.0768 2.842627,-1.36402 2.209138,-2.24085 4.346325,-2.82391 5.535275,-1.51014 0.740696,0.81846 0.489389,1.90711 -0.719759,3.11797 -1.223211,1.22495 -2.217301,1.55506 -3.915839,1.30036 -1.748243,-0.26217 -1.807703,-0.0172 -0.192875,0.79446 3.34032,1.67907 5.102779,1.60623 5.922101,-0.24474 0.632479,-1.42888 2.616737,-3.31401 3.48827,-3.31401 1.112212,0 1.613605,0.77433 1.363765,2.10608 -0.296139,1.57854 -1.098822,2.41966 -2.816125,2.95097 l -1.476746,0.45689 2.492422,0.0325 c 2.848341,0.0371 3.104641,-0.13285 4.045084,-2.68191 1.006906,-2.72921 3.482077,-3.28168 3.464243,-0.77324 -0.0091,1.27727 -0.796614,2.29869 -2.28986,2.96993 l -1.14858,0.51631 1.640826,-0.19053 c 2.042354,-0.23715 3.226978,-1.27729 3.956625,-3.47405 0.290636,-0.87502 0.774526,-1.71977 1.075309,-1.87722 0.689096,-0.3607 1.867122,0.0676 2.139735,0.77809 0.325352,0.84786 -0.690357,2.43938 -1.935852,3.03332 -1.397532,0.66644 -1.47308,1.14456 -0.143848,0.91038 1.961355,-0.34554 4.28554,1.73833 3.284313,2.94472 -0.601592,0.72488 -2.099062,0.61919 -2.828649,-0.19966 -1.040886,-1.1682 -2.578259,-1.64228 -4.493628,-1.38567 l -1.710335,0.22915 0.987248,0.40541 c 1.712507,0.70325 2.570217,2.06873 2.097777,3.3397 -0.571173,1.53655 -2.401834,0.63478 -4.026912,-1.98365 -0.707443,-1.13988 -1.4245,-1.41509 -4.226717,-1.62228 -2.172339,-0.16062 -2.936718,0.14289 -1.476746,0.58637 1.500938,0.45592 2.871449,1.77481 2.871449,2.76329 0,1.56206 -0.309279,1.97913 -1.467598,1.97913 -1.555796,0 -2.70891,-1.07054 -3.29284,-3.05706 -0.275057,-0.93573 -0.616458,-1.88448 -0.758671,-2.10834 -0.201182,-0.31668 -5.716163,-2.71057 -6.244542,-2.71057 -0.06506,0 0.330681,0.51135 0.879428,1.13635 1.059916,1.20718 2.351922,3.82286 2.351922,4.76149 0,0.63297 -0.89317,1.54591 -1.640827,1.67712 -0.830999,0.14586 -2.321267,-0.76269 -2.814017,-1.71557 -0.288351,-0.55761 -0.467636,-1.89302 -0.467636,-3.48322 0,-1.57544 -0.159612,-2.77507 -0.410208,-3.08307 -0.225613,-0.27729 -1.37009,-1.21531 -2.543282,-2.08449 -1.17319,-0.86917 -2.539178,-1.95338 -3.03553,-2.40934 -0.496349,-0.45597 -0.902455,-0.74708 -0.902455,-0.6469 0,0.1001 0.516862,1.19141 1.14858,2.42496 1.115314,2.17789 1.489843,4.37328 0.89743,5.26049 -0.353492,0.52941 -1.577187,1.11568 -2.328708,1.11568 -0.778281,0 -2.543905,-2.03367 -2.763653,-3.18321 -0.08539,-0.44671 0.108699,-2.01758 0.43133,-3.49085 0.715494,-3.26729 0.579996,-3.65827 -2.414991,-6.96822 -1.131568,-1.25056 -2.410851,-2.77938 -2.842849,-3.3974 -1.072938,-1.53491 -1.208703,-0.76759 -0.212149,1.19901 0.997799,1.96906 1.475356,4.46525 1.147062,5.9957 -0.2183,1.01768 -0.04572,1.48657 1.514261,4.11425 4.752352,8.00497 11.813065,15.91707 19.368702,21.70417 3.169934,2.42796 7.202185,4.97845 7.538247,4.76812 0.186856,-0.11695 1.668807,-0.54882 3.293225,-0.95973 z m 94.716476,-15.26957 c 1.14682,-1.34106 1.24059,-1.5588 0.6713,-1.5588 -1.10621,0 -2.52631,1.49702 -3.80493,4.01102 l -1.21464,2.38822 1.50762,-1.64083 c 0.82919,-0.90246 2.10749,-2.34228 2.84065,-3.19961 z M 34.4343,131.73909 c 0.01333,-0.58004 -0.427175,-1.76049 -1.043472,-2.79628 -0.586596,-0.98587 -1.275966,-2.19528 -1.531933,-2.68757 -0.912967,-1.75589 -0.696647,-0.58145 0.659101,3.57837 1.049968,3.22159 1.437277,4.06642 1.634619,3.56562 0.142241,-0.36099 0.268999,-1.10804 0.281685,-1.66014 z m 69.7152,-19.05336 c 3.35596,-1.33222 8.52823,-4.2487 9.61999,-5.42444 0.93496,-1.00688 1.49912,-2.53106 1.27193,-3.43631 -0.2675,-1.06576 -2.5522,-2.01128 -5.83406,-2.41446 -6.60671,-0.81163 -12.134432,1.54053 -14.250024,6.06364 -0.967343,2.06819 -0.975044,3.37832 -0.0281,4.78347 1.507704,2.23727 4.332429,2.36841 9.220284,0.4281 z m -2.41823,-13.826415 c 1.72276,-0.860609 2.33694,-2.429256 2.54466,-6.499151 0.18279,-3.581565 0.48936,-4.310652 1.6568,-3.940124 0.54381,0.172595 0.65123,0.660174 0.84372,3.829656 0.2451,4.035283 0.67609,5.419913 2.01486,6.472987 1.85154,1.456417 5.87435,0.700655 6.90777,-1.297774 0.71851,-1.389433 1.0118,-7.16266 0.52259,-10.286596 -0.62005,-3.959394 -1.89849,-4.944166 -6.37755,-4.912558 -3.38131,0.02391 -3.14988,0.350147 -3.27305,-4.614636 -0.0808,-3.256412 -0.0877,-3.281663 -0.89859,-3.281663 -0.98455,0 -1.21938,0.803565 -1.27705,4.369768 -0.0539,3.336466 -0.34215,3.780431 -2.28079,3.513794 -1.81094,-0.249068 -4.546164,0.293821 -5.428942,1.077537 -1.465639,1.301179 -1.83106,2.897493 -1.838692,8.032009 -0.009,5.631417 0.323288,6.874922 2.031545,7.617132 1.475702,0.641166 3.474609,0.608049 4.852719,-0.0804 z m 24.77648,-67.392301 c -1.24558,-0.390477 -8.22569,-1.932125 -8.748,-1.932125 -0.51593,0 1.01483,1.635925 1.85652,1.984077 0.36099,0.149314 2.28076,0.268136 4.26616,0.264072 2.74157,-0.0062 3.37302,-0.08166 2.62532,-0.316024 z m 30.80653,159.263446 c 0.089,-0.14398 0.03,-0.47503 -0.13105,-0.73563 -0.22137,-0.35818 -0.38534,-0.38135 -0.67172,-0.0951 -0.20838,0.20838 -0.27965,0.53941 -0.15837,0.73563 0.25913,0.4193 0.73183,0.46599 0.96114,0.095 z m -1.10756,-2.20954 c 0,-0.34572 -3.41265,-5.73281 -3.63167,-5.73281 -0.74708,0 -0.48828,0.85091 1.03295,3.39626 1.13812,1.90432 1.81921,2.73963 2.13499,2.61845 0.25506,-0.0979 0.46373,-0.22473 0.46373,-0.2819 z m -103.252844,-0.8459 c 0.266546,-0.38056 0.644106,-0.59335 0.839021,-0.47288 0.593408,0.36674 1.095657,-0.14237 0.659227,-0.66823 -0.304101,-0.36643 -0.103843,-0.89097 0.96856,-2.53696 1.427531,-2.19105 1.597419,-2.80107 0.958129,-3.44036 -0.731578,-0.73158 -1.337929,-0.47247 -1.10124,0.47056 0.311506,1.24114 -1.850719,4.51433 -2.786007,4.21747 -0.680631,-0.21602 -0.942722,0.6002 -0.316917,0.98697 0.200764,0.12408 0.137753,0.48561 -0.165235,0.94802 -0.793914,1.21167 0.110496,1.68607 0.944462,0.49541 z m 108.309434,-1.44089 c -0.33195,-0.5066 -0.3826,-0.8312 -0.15194,-0.97376 0.59538,-0.36797 0.37735,-0.91618 -0.29449,-0.74049 -0.5026,0.13144 -0.93105,-0.27844 -1.98989,-1.90362 -1.47256,-2.26015 -2.0018,-2.63192 -2.99215,-2.10191 -0.79483,0.42537 -0.62752,1.15705 0.23831,1.04209 0.4342,-0.0576 1.0026,0.4612 1.85644,1.6947 1.26391,1.82589 1.49742,2.49047 0.87511,2.49047 -0.19553,0 -0.29256,0.18458 -0.21562,0.41019 0.0769,0.22562 0.44911,0.36559 0.82705,0.31104 0.43251,-0.0625 0.82492,0.15827 1.05892,0.59549 0.2928,0.54708 0.46888,0.61404 0.82896,0.3152 0.38956,-0.3233 0.38352,-0.49193 -0.0407,-1.1394 z m -113.236523,-0.6461 c 0.210416,-0.54834 -0.278491,-0.97121 -0.770972,-0.66684 -0.490654,0.30324 -0.395733,1.14858 0.128973,1.14858 0.251425,0 0.540325,-0.21679 0.641999,-0.48174 z m 3.787273,-5.1215 c 1.034526,-1.46695 1.22139,-1.92321 0.846572,-2.06705 -0.668567,-0.25655 -4.588685,5.06175 -4.00706,5.43625 0.44475,0.28638 0.999757,-0.30528 3.160488,-3.3692 z m 114.71845,0.64676 c 1.14534,-1.00561 1.59286,-2.61323 0.85451,-3.06956 -0.42803,-0.26454 -0.84073,0.50383 -0.73021,1.35956 0.1078,0.83465 -1.2961,1.92685 -2.08678,1.62344 -1.02097,-0.39179 -0.92394,-1.21747 0.28907,-2.45971 1.4604,-1.49558 1.58126,-2.72874 0.34673,-3.53763 -1.16564,-0.76377 -2.39504,-0.28112 -3.27363,1.28517 -0.37879,0.67529 -0.77714,1.13938 -0.88521,1.03131 -0.10804,-0.10804 -0.5111,-0.0966 -0.89562,0.0254 -0.77249,0.24518 -0.72084,1.03686 0.0589,0.9018 0.26948,-0.0467 1.18625,0.80185 2.03876,1.88696 1.81884,2.31508 2.54777,2.47731 4.28354,0.95327 z m -4.0086,-2.24441 c -0.62193,-1.01002 -0.49692,-1.79186 0.42496,-2.65793 0.65832,-0.61846 0.95363,-0.70999 1.39469,-0.43224 0.92032,0.57955 0.82667,1.32813 -0.32226,2.57576 -1.05364,1.14415 -1.09984,1.16002 -1.49739,0.51441 z M 46.94999,177.36251 c 1.416884,-4.01434 1.110336,-4.23802 -2.811746,-2.05165 -3.502719,1.95258 -3.331133,1.81615 -2.86728,2.28 0.275379,0.27537 0.971924,0.0134 2.710604,-1.01955 1.286992,-0.76459 2.402442,-1.32769 2.478777,-1.25136 0.07634,0.0763 -0.327875,1.28458 -0.898243,2.68499 -0.853214,2.09489 -0.955814,2.5964 -0.57883,2.8294 0.572559,0.35385 0.688915,0.14845 1.966718,-3.47183 z m 126.63276,-1.98254 c 1.49746,-1.44855 0.63406,-4.38665 -1.63366,-5.55934 -1.3911,-0.71936 -2.22544,-0.59995 -3.29732,0.47196 -0.96789,0.96788 -1.24899,2.34154 -0.66709,3.25989 0.39273,0.61981 0.87213,-0.16697 0.7373,-1.21003 -0.11572,-0.89513 0.78891,-2.02463 1.62154,-2.02463 0.78212,0 2.58285,1.55399 2.96477,2.55849 0.447,1.17571 -0.43646,2.4404 -1.61819,2.31645 -0.48422,-0.0508 -1.08487,0.0341 -1.33476,0.18844 -0.35702,0.22066 -0.28668,0.37315 0.32836,0.71191 0.95794,0.52763 1.84094,0.31041 2.89905,-0.71314 z M 40.881121,172.91938 c 1.354097,-1.31244 1.665678,-2.54952 0.977383,-3.88053 -0.642948,-1.24332 -1.544244,-1.74366 -2.904028,-1.61212 -1.140763,0.1104 -1.397412,0.6992 -0.371707,0.85284 2.430999,0.36416 3.094512,1.1094 2.425572,2.72436 -0.217502,0.5251 -0.483657,0.95472 -0.591451,0.95472 -0.107794,0 -0.985164,-0.77528 -1.949708,-1.72286 l -1.753718,-1.72286 -0.833509,0.95984 c -0.673213,0.77524 -0.797618,1.18546 -0.646879,2.13306 0.44006,2.76644 3.43131,3.46209 5.648045,1.31355 z m -4.126598,-0.30439 c -0.709537,-0.70954 -0.827777,-1.51781 -0.335867,-2.29594 0.255142,-0.40359 0.574995,-0.23135 1.796351,0.96731 1.050805,1.03129 1.366849,1.53397 1.079264,1.71663 -0.723299,0.45937 -1.867116,0.28462 -2.539748,-0.388 z M 178.67169,170.0129 c 0.10371,-0.16771 -0.63143,-1.01279 -1.63353,-1.87793 -1.95045,-1.6839 -2.39996,-2.59905 -1.81421,-3.69355 0.5825,-1.08841 1.67186,-0.80896 3.73679,0.95855 1.72287,1.47471 2.51471,1.78738 2.51471,0.99298 0,-0.49763 -3.79096,-3.57353 -4.67895,-3.79639 -1.08169,-0.27149 -2.54068,1.03857 -2.54068,2.28131 0,0.57204 -0.14078,0.77103 -0.45905,0.64889 -0.25248,-0.0969 -0.54941,-0.03 -0.65983,0.1487 -0.20193,0.32672 4.49078,4.64236 5.04798,4.64236 0.16407,0 0.38311,-0.13721 0.48677,-0.30492 z M 29.781008,161.68128 c 1.850033,-1.26138 3.363696,-2.4677 3.363696,-2.68071 0,-0.82471 -0.463827,-0.75095 -2.067099,0.32876 l -1.663147,1.12003 -1.088366,-1.61613 c -0.598601,-0.88887 -1.088365,-1.82593 -1.088365,-2.08237 0,-0.38378 0.571026,-0.912 2.569869,-2.37729 0.05975,-0.0437 -0.04724,-0.37087 -0.237743,-0.72683 -0.327736,-0.61239 -0.426277,-0.57542 -1.831498,0.68729 -0.816818,0.73399 -1.485125,1.59959 -1.485125,1.92355 0,0.4684 -0.185912,0.55188 -0.907633,0.40753 -1.984579,-0.39691 -3.364939,1.92117 -2.32912,3.91137 0.880197,1.69119 2.660739,3.82442 3.019636,3.61775 0.209661,-0.1208 1.894863,-1.25156 3.744895,-2.51295 z m -5.1608,-0.53992 c -1.208324,-1.88301 -1.186593,-2.58154 0.10212,-3.28253 0.908591,-0.49424 0.946967,-0.47929 2.077381,0.80913 1.872666,2.1344 1.893727,2.27284 0.493421,3.24327 -0.681594,0.47233 -1.326683,0.85879 -1.433534,0.85879 -0.106854,0 -0.664575,-0.7329 -1.239388,-1.62866 z m 162.346782,2.38273 c 0.0648,-0.19442 -0.42099,-0.68649 -1.07955,-1.0935 l -1.19736,-0.74002 1.01801,-0.79672 c 1.51507,-1.18572 1.42601,-2.71553 -0.25605,-4.39757 -1.19483,-1.19484 -1.8831,-1.44795 -3.48434,-1.28134 -1.05471,0.10977 -1.8049,1.00535 -1.8049,2.15475 0,0.78395 -0.14083,1.04934 -0.53897,1.01569 -1.33853,-0.11325 -0.49637,0.79691 2.91936,3.15491 3.5672,2.46256 4.17358,2.73447 4.4238,1.9838 z m -4.53621,-3.47158 c -2.7611,-1.86071 -1.61902,-4.74405 1.38605,-3.49931 1.8157,0.75209 2.49328,2.64713 1.32464,3.70472 -0.80545,0.72893 -1.38995,0.68464 -2.71069,-0.20541 z m 11.2941,-7.49099 c 0.87123,-1.63732 1.53577,-3.01712 1.47675,-3.06621 -0.39146,-0.32554 -7.77599,-4.11805 -8.01842,-4.11805 -0.16597,0 -1.00309,1.31255 -1.8603,2.9168 -1.26275,2.36321 -1.46439,2.95292 -1.06243,3.10717 0.35282,0.13539 0.74661,-0.30421 1.36346,-1.5221 1.6261,-3.21052 1.66943,-3.25066 2.85735,-2.64767 1.85411,0.94117 1.85643,0.95327 0.62786,3.26697 -0.83014,1.56335 -1.04574,2.25438 -0.78479,2.51533 0.44875,0.44875 0.41174,0.49308 1.64922,-1.97565 0.56547,-1.12806 1.18101,-2.05103 1.36786,-2.05103 0.60493,0 2.27613,0.99107 2.27613,1.34981 0,0.19165 -0.52767,1.29202 -1.17259,2.44528 -1.04338,1.86571 -1.21916,2.78034 -0.53091,2.76226 0.12472,-0.004 0.93959,-1.34558 1.81081,-2.98291 z M 24.614505,151.61133 c 1.475777,-0.75289 1.966891,-1.49099 1.966891,-2.95609 0,-1.31467 -1.547391,-2.94982 -2.79151,-2.94982 -1.000369,0 -0.976873,0.75095 0.0293,0.93634 1.68582,0.31062 2.365717,2.3678 1.147055,3.47066 -0.602858,0.54558 -0.652038,0.53697 -1.115563,-0.19525 -0.266696,-0.4213 -0.851185,-1.49999 -1.298865,-2.39708 l -0.813964,-1.63107 -1.188045,1.18805 c -1.267159,1.26715 -1.460344,2.19717 -0.730087,3.51472 0.933668,1.68453 2.73888,2.06839 4.79479,1.01954 z m -3.611921,-0.98342 c -0.360982,-0.36099 -0.65633,-0.88756 -0.65633,-1.17016 0,-0.69294 0.605632,-1.78333 0.990514,-1.78333 0.270605,0 1.962974,2.96132 1.962974,3.43482 0,0.45892 -1.716585,0.0992 -2.297158,-0.48133 z m -1.648172,-7.53409 c 0.189153,-0.35343 0.305104,-1.49791 0.257671,-2.54328 -0.08299,-1.82898 -0.05547,-1.90067 0.729748,-1.90067 1.178796,0 1.896255,1.53703 1.207868,2.58765 -0.764707,1.16709 -0.136081,1.7657 0.716288,0.68208 1.202282,-1.52844 0.05773,-4.1658 -1.891575,-4.35866 -1.66741,-0.16497 -2.103585,0.4282 -1.907225,2.59369 0.188418,2.07792 -0.04828,2.71665 -0.942881,2.54436 -0.79672,-0.15344 -1.375901,-1.75078 -0.908761,-2.50631 0.189866,-0.30707 0.279422,-0.75194 0.199015,-0.98858 -0.233011,-0.68579 -1.390788,0.54785 -1.390788,1.48191 0,0.94704 0.809431,2.59808 1.387798,2.83079 0.992697,0.3994 2.211191,0.19672 2.542842,-0.42298 z M 197.33793,138.3429 c 0.0993,-0.25907 0.005,-0.5391 -0.21101,-0.62229 -0.25098,-0.0969 -0.1399,-0.33763 0.30911,-0.66987 2.33194,-1.72559 0.30611,-5.12403 -3.05627,-5.12704 -1.73918,-9.9e-4 -2.85422,1.20074 -2.65961,2.86771 0.11114,0.95194 0.05,1.04861 -0.54752,0.86605 -0.36994,-0.113 -0.85721,-0.35317 -1.08283,-0.53367 -0.82347,-0.65883 -0.25577,-3.20131 0.7148,-3.20131 0.24508,0 0.52879,-0.21679 0.63046,-0.48175 0.49831,-1.29856 -1.52098,-0.59545 -2.23054,0.77668 -1.30491,2.52343 -0.39296,3.70233 4.12525,5.333 3.97628,1.43505 3.77672,1.3956 4.00816,0.79249 z m -2.55809,-1.41292 c -1.95586,-0.48536 -2.85073,-1.92382 -2.00232,-3.21866 0.76448,-1.16677 2.89941,-0.99526 4.23487,0.34018 1.38008,1.3801 -0.17759,3.38843 -2.23255,2.87848 z M 17.50397,134.89607 c 1.985798,-0.75499 2.698123,-2.67209 1.705842,-4.59095 -0.667426,-1.29066 -2.473378,-1.90682 -2.473378,-0.84388 0,0.27073 0.210964,0.49225 0.468808,0.49225 1.453263,0 2.040835,2.53758 0.790374,3.41344 -0.390396,0.27344 -0.816559,0.43119 -0.947029,0.35056 -0.13047,-0.0807 -0.497508,-1.10821 -0.815639,-2.28348 -0.676686,-2.49987 -1.251356,-2.72966 -2.843879,-1.13714 -0.863785,0.86379 -0.973413,1.16499 -0.806249,2.21512 0.35214,2.21215 2.560021,3.28178 4.92115,2.38408 z m -3.506079,-1.27656 c -0.623616,-0.68909 -0.690111,-1.46551 -0.203399,-2.37494 0.555294,-1.03757 1.246913,-0.74209 1.634808,0.69843 0.197444,0.73326 0.440447,1.54547 0.540007,1.80491 0.271081,0.70642 -1.309044,0.60352 -1.971416,-0.1284 z m 186.477269,-5.81276 c 0.34727,-0.70687 0.37406,-1.15616 0.11051,-1.85432 -0.27901,-0.73917 -0.25608,-0.92142 0.11597,-0.92142 0.25505,0 0.46375,-0.2094 0.46375,-0.46531 0,-0.70342 -6.20809,-2.07529 -6.5968,-1.45777 -0.27474,0.43644 0.53046,0.77076 3.37423,1.40098 1.22298,0.27104 1.9638,1.10951 1.84567,2.08904 -0.16767,1.39048 -0.92327,1.59148 -3.5831,0.9531 -1.86981,-0.44874 -2.42729,-0.48263 -2.6269,-0.15964 -0.3616,0.58508 -0.23846,0.64492 2.58397,1.2557 2.89652,0.62679 3.66548,0.47696 4.3127,-0.84036 z M 13.126616,125.45353 c 0,-0.12858 -0.356459,-0.53468 -0.792132,-0.90244 -1.073659,-0.90631 -1.333765,-1.94162 -0.657662,-2.61772 0.781645,-0.78166 1.127774,-0.52774 1.823687,1.33782 0.870916,2.33469 2.539344,2.89773 3.862466,1.30346 0.532844,-0.64203 0.259518,-2.3557 -0.511646,-3.20782 -0.43273,-0.47816 -0.456078,-0.68313 -0.123468,-1.08389 0.44207,-0.53267 0.243565,-1.48708 -0.309288,-1.48708 -0.186157,0 -0.338466,0.20811 -0.338466,0.46245 0,0.31534 -0.741979,0.59504 -2.33261,0.8793 -1.282935,0.22927 -2.538168,0.62242 -2.789405,0.87366 -0.851605,0.85161 -0.427557,3.69949 0.658869,4.42492 0.464324,0.31003 1.509658,0.32205 1.509658,0.0173 z m 1.844506,-1.31113 c -0.310284,-0.30841 -1.188176,-2.3486 -1.188176,-2.76129 0,-0.15845 0.439618,-0.28809 0.976931,-0.28809 1.138857,0 2.088835,1.16791 1.919826,2.36022 -0.108674,0.76667 -1.191257,1.20333 -1.708581,0.68916 z m 189.475908,-4.16285 c 0,-0.62024 -0.88833,-0.92313 -1.09881,-0.37464 -0.19859,0.51752 0.0513,0.83178 0.66125,0.83178 0.24066,0 0.43756,-0.20571 0.43756,-0.45714 z m -2.50188,-0.3757 c 0.10655,-0.27757 0.0112,-0.56128 -0.21101,-0.63049 -0.51487,-0.16008 -5.36046,-0.83384 -5.9969,-0.83384 -0.58187,0 -0.64813,0.97433 -0.0686,1.00916 0.31958,0.0192 4.81593,0.72414 5.87187,0.92058 0.1161,0.0215 0.29817,-0.18783 0.40468,-0.46541 z M 15.942228,115.95099 c 0.233529,-0.0896 0.356419,-0.34061 0.273086,-0.55777 -0.101599,-0.26478 -1.040603,-0.39095 -2.850725,-0.38304 -2.490042,0.0112 -2.724317,-0.0454 -3.023156,-0.72659 -0.178167,-0.40611 -0.5929874,-0.73838 -0.9218215,-0.73838 -0.6288166,0 -0.5391859,0.3453 0.3620446,1.39471 0.3163239,0.36834 0.3572669,0.57429 0.1141635,0.57429 -0.2084648,0 -0.3790275,0.24055 -0.3790275,0.53457 0,0.47213 0.3505085,0.50716 3.0004159,0.29985 1.650229,-0.12909 3.191487,-0.30802 3.425016,-0.39764 z m 186.535812,-1.09218 c 0,-0.36045 -0.51686,-1.22747 -1.14857,-1.92671 -0.63173,-0.69924 -1.14859,-1.38327 -1.14859,-1.52007 0,-0.1368 1.1814,-0.14567 2.62533,-0.0197 2.18552,0.19064 2.62532,0.14888 2.62532,-0.24928 0,-0.58063 -1.00264,-0.77005 -5.61198,-1.06032 -3.02439,-0.19046 -3.50538,-0.15008 -3.68156,0.30905 -0.16442,0.42848 0.0335,0.52811 1.04884,0.52811 0.78917,0 1.44932,0.21859 1.78699,0.59171 0.5052,0.55824 0.43639,0.64031 -1.21683,1.45113 -1.05869,0.51921 -1.8229,1.12935 -1.93065,1.54136 -0.0981,0.37508 -0.0956,0.68196 0.005,0.68196 0.10111,0 1.11122,-0.5186 2.24465,-1.15247 l 2.06078,-1.15244 1.08834,1.31062 c 0.59858,0.72083 1.12523,1.31328 1.17035,1.31653 0.0451,0.004 0.082,-0.28901 0.082,-0.64947 z M 14.072113,109.89983 c 1.29267,-0.45064 2.130983,-1.93904 1.839525,-3.26604 -0.194957,-0.88764 -1.520908,-2.27721 -2.172947,-2.27721 -0.594537,0 -0.248892,0.93196 0.536503,1.44658 1.36632,0.89524 1.048215,2.49967 -0.621463,3.13447 -2.213429,0.84156 -4.6575867,-0.71607 -3.862356,-2.46141 0.2022249,-0.44383 0.592358,-0.80697 0.866964,-0.80697 0.277854,0 0.499283,-0.28652 0.499283,-0.64603 0,-0.71993 -0.710485,-0.61496 -1.7228678,0.25452 -0.6407452,0.55031 -0.7693669,2.3673 -0.2378724,3.36042 0.7507521,1.40279 2.8855702,1.95526 4.8752312,1.26167 z m 182.827117,-3.5395 c 0,-0.16138 1.19454,-0.34767 2.65452,-0.41396 3.04619,-0.13835 3.58062,-0.53416 3.58062,-2.65191 0,-1.24586 -1.10754,-2.87587 -1.95407,-2.87587 -0.64294,0 -0.3508,1.23411 0.33455,1.41333 0.56119,0.14675 0.65989,0.39302 0.57429,1.43297 -0.0896,1.0891 -0.21103,1.25577 -0.91468,1.25577 -0.69696,0 -0.84452,-0.19443 -1.04681,-1.37942 -0.36162,-2.1182 -0.80196,-2.72265 -1.9835,-2.72265 -1.96646,0 -2.87852,1.88072 -1.71657,3.53966 0.46503,0.6639 0.46503,0.78001 0,1.24504 -0.55582,0.55579 -0.63563,0.89012 -0.29407,1.23168 0.31376,0.31376 0.76572,0.26971 0.76572,-0.0746 z m 0.31949,-2.34814 c -0.56157,-1.04927 -0.27438,-2.42801 0.52964,-2.54288 0.86528,-0.12365 1.30312,0.42493 1.58419,1.98482 0.21598,1.19861 0.19606,1.23062 -0.76608,1.23062 -0.6599,0 -1.1073,-0.22326 -1.34775,-0.67256 z M 15.751939,100.96153 c 0,-0.30625 -0.776561,-0.53255 -2.533687,-0.73838 -2.27714,-0.266737 -2.584499,-0.387876 -3.035529,-1.196407 -0.3859461,-0.691867 -0.4161827,-1.032909 -0.130926,-1.476749 0.311368,-0.484468 0.825064,-0.569133 3.199613,-0.527369 2.121793,0.03726 2.828694,-0.05639 2.828694,-0.375095 0,-0.644074 -0.788987,-0.823248 -3.625113,-0.823248 -2.221766,0 -2.6348909,0.08957 -2.9266489,0.634769 -0.4675024,0.873532 -0.4267709,2.755922 0.070498,3.257833 0.329924,0.332996 0.081258,0.370776 -1.2706129,0.193012 -1.1498938,-0.151207 -1.7563107,-0.09883 -1.9198116,0.165674 -0.3958759,0.64054 0.06461,0.80363 2.8784905,1.01948 4.9394949,0.37889 6.4650359,0.34739 6.4650359,-0.13352 z M 197.88372,96.445811 c 0,-0.199638 -0.36917,-0.653381 -0.82041,-1.008311 -1.35782,-1.06807 -0.77554,-3.551196 0.83273,-3.551196 0.46691,0 0.60817,0.440273 0.8008,2.496012 l 0.2339,2.496016 1.03528,-0.198502 c 2.94292,-0.564271 3.40059,-4.509679 0.65615,-5.656378 -1.59599,-0.666839 -3.22991,-0.336988 -4.46911,0.902216 -0.83197,0.831949 -0.94739,1.149361 -0.78404,2.156 0.10532,0.649221 0.5185,1.52842 0.91809,1.953759 0.76313,0.812329 1.59661,1.026552 1.59661,0.410384 z m 1.82164,-1.359893 c -0.3277,-1.060452 -0.41373,-3.219735 -0.13514,-3.391921 0.17124,-0.105813 0.67405,0.04522 1.11735,0.335674 1.3025,0.853433 0.98703,3.466461 -0.41854,3.466461 -0.24029,0 -0.49395,-0.184603 -0.56367,-0.410214 z m 1.78819,-8.30267 c 0,-0.2412 -0.32821,-0.668414 -0.72935,-0.949386 -0.40114,-0.280972 -0.54882,-0.510859 -0.32817,-0.510859 0.22065,0 0.40119,-0.272856 0.40119,-0.606363 0,-0.584569 -0.11795,-0.581806 -3.28166,0.07694 -2.74524,0.571584 -3.28165,0.783716 -3.28165,1.297796 0,0.391655 0.16647,0.550658 0.45901,0.438403 0.25245,-0.09689 1.36336,-0.354062 2.46865,-0.57151 1.80725,-0.355561 2.07499,-0.336232 2.65856,0.191887 0.35691,0.323 0.64892,0.781251 0.64892,1.018349 0,0.248361 0.20865,0.351026 0.49225,0.242191 0.27074,-0.10383 0.49225,-0.386227 0.49225,-0.627415 z M 18.961265,81.022123 c 0.06735,-0.346925 -1.023512,-0.776034 -4.102067,-1.613634 -4.808027,-1.308156 -4.80896,-1.30828 -4.9369358,-0.643745 -0.07259,0.376971 0.9188668,0.784719 4.0975728,1.685201 2.306339,0.653346 4.341019,1.155694 4.521509,1.11633 0.180491,-0.0394 0.369455,-0.284231 0.419921,-0.544152 z m 177.937965,0.187129 c 2.15343,-0.598037 3.11002,-3.253042 1.64856,-4.575631 -0.81657,-0.738988 -0.64017,-1.025462 0.79754,-1.295171 1.17536,-0.220496 1.66378,-0.629458 1.35277,-1.132661 -0.15407,-0.249314 -8.60742,2.072692 -9.04899,2.485619 -0.09,0.08413 0.0578,0.325478 0.32815,0.536334 0.30994,0.241634 0.45272,0.790952 0.38623,1.485818 -0.0752,0.785339 0.10172,1.323073 0.61507,1.869468 0.99827,1.062619 1.85598,1.199617 3.92067,0.626224 z m -3.46149,-1.607142 c -0.40097,-0.611952 -0.44048,-0.95288 -0.16911,-1.45991 1.19426,-2.23151 4.94325,-2.270266 4.94325,-0.05117 0,2.081737 -3.64442,3.2352 -4.77414,1.51102 z m -176.34288,-5.674282 -3.475998,-1.402171 4.023959,0.08153 c 3.646708,0.07385 4.041763,0.0254 4.213873,-0.516905 0.107657,-0.339219 -0.0225,-0.765614 -0.300531,-0.984487 -1.763148,-1.388059 -5.438467,-4.635154 -5.348389,-4.725243 0.05985,-0.05985 1.634749,0.485881 3.499797,1.212714 1.865045,0.726832 3.436258,1.321512 3.491581,1.321512 0.05532,0 0.100596,-0.259798 0.100596,-0.577309 0,-0.435539 -1.011148,-0.969061 -4.117348,-2.172493 -2.264543,-0.87735 -4.162532,-1.540522 -4.217753,-1.473726 -0.913685,1.105254 -0.774266,1.374208 1.893612,3.653034 4.20236,3.589534 4.256903,3.267514 -0.532112,3.141679 l -4.184196,-0.109901 -0.27507,0.820416 c -0.268308,0.800245 -0.16949,0.861724 4.020113,2.501119 3.668683,1.435551 4.32353,1.604256 4.489525,1.156598 0.153393,-0.41367 -0.538078,-0.819561 -3.281653,-1.926276 z m 181.56428,-4.360526 c 0.15574,-0.146972 0.18833,-0.420659 0.0724,-0.608196 -0.13762,-0.222677 -0.72716,-0.119566 -1.69918,0.297042 l -1.48845,0.638032 0.21518,-0.678003 c 0.32283,-1.017135 -0.43433,-2.491479 -1.50789,-2.936163 -1.81421,-0.751465 -4.83792,0.560656 -5.4043,2.345152 -0.28738,0.905449 0.42756,2.51808 1.22916,2.772488 0.44564,0.141446 0.54714,0.314525 0.31851,0.543148 -0.18455,0.184565 -0.26242,0.526137 -0.17304,0.759073 0.11906,0.310337 1.2304,-0.01598 4.15846,-1.220916 2.19778,-0.904434 4.12338,-1.764685 4.27912,-1.911657 z m -8.43644,1.044456 c -0.76995,-0.850785 -0.67507,-1.606065 0.31727,-2.525738 1.19622,-1.108625 2.91159,-1.392236 3.76259,-0.6221 0.95753,0.866545 0.69003,2.09793 -0.65148,2.998994 -1.34545,0.903728 -2.69231,0.962197 -3.42838,0.148844 z m 1.68183,-8.854977 c 0.45257,-0.683294 0.45038,-0.868094 -0.022,-1.858899 -0.28855,-0.605112 -0.83617,-1.19906 -1.21692,-1.319914 -0.55086,-0.174838 -0.61417,-0.313856 -0.30989,-0.680493 0.89823,-1.082296 -0.68961,-0.745295 -3.32233,0.705112 -1.52263,0.838853 -2.7973,1.549838 -2.83262,1.579971 -0.0353,0.03011 0.0509,0.241063 0.19162,0.468721 0.19207,0.31077 0.82915,0.106679 2.55643,-0.819078 2.27598,-1.219801 2.31013,-1.226739 3.19188,-0.648998 1.45711,0.954739 1.07511,2.11835 -1.11733,3.403496 -0.9927,0.581905 -2.01539,1.182259 -2.27264,1.334113 -0.26387,0.155782 -0.36016,0.450197 -0.2209,0.675513 0.32422,0.5246 4.66578,-1.76907 5.37481,-2.839544 z M 25.775499,63.898919 c 0.652384,-0.561152 0.87153,-1.056251 0.87153,-1.968986 0,-0.979171 0.122812,-1.21933 0.623514,-1.21933 0.342933,0 0.623515,-0.0617 0.623515,-0.137246 0,-0.07546 0.09875,-0.394578 0.219434,-0.709078 0.17934,-0.467358 0.08388,-0.536396 -0.522468,-0.377825 -0.500671,0.130927 -1.422649,-0.180178 -2.835529,-0.956795 -2.31251,-1.271109 -2.999741,-1.2523 -4.072516,0.111511 -0.756986,0.962358 -0.880188,2.794878 -0.22449,3.339055 0.628962,0.521999 0.848233,0.149252 0.645847,-1.097906 -0.200313,-1.234385 0.821577,-2.597676 1.695714,-2.26225 0.614819,0.235935 0.624406,0.883396 0.03803,2.568188 -0.531455,1.52699 -0.273781,2.4792 0.82407,3.045283 1.04838,0.540572 1.106605,0.531353 2.113349,-0.334621 z m -1.928815,-0.781771 c -0.339167,-0.339169 -0.231308,-1.817157 0.206232,-2.825952 0.377048,-0.86932 0.429684,-0.887497 1.133777,-0.391592 0.794127,0.559317 0.963114,1.746867 0.398661,2.801556 -0.331886,0.620141 -1.302332,0.85232 -1.73867,0.415988 z m 9.330439,-6.379246 c 1.192011,-1.27604 1.276479,-2.860087 0.213705,-4.007579 -1.265271,-1.366129 -6.087753,-4.533071 -6.323041,-4.152371 -0.119008,0.192569 -0.134097,0.564559 -0.03353,0.826649 0.108712,0.283301 -0.01257,0.476539 -0.299084,0.476539 -0.804131,0 -1.794612,1.253947 -1.794612,2.271975 0,1.978698 2.997863,4.304361 4.709586,3.653566 1.014973,-0.385892 1.853722,-1.566849 1.853722,-2.610029 v -0.804593 l 0.820414,0.770731 c 0.451228,0.423905 0.820414,1.081329 0.820414,1.460939 0,0.969035 -0.858764,2.084635 -1.700051,2.208475 -1.069764,0.157479 -1.15256,0.924903 -0.09979,0.924903 0.561492,0 1.224898,-0.369018 1.832256,-1.019205 z m -6.232857,-2.886354 c -1.659045,-1.549789 -1.246872,-3.321486 0.7693,-3.306778 1.113013,0.0087 2.199363,0.748379 2.79073,1.901657 0.316315,0.616882 0.29117,0.91105 -0.13324,1.558784 -0.732752,1.118325 -2.132305,1.055557 -3.42679,-0.153663 z M 185.3314,54.708502 c 1.30856,-0.895227 2.3792,-1.748192 2.3792,-1.895499 0,-0.729955 -0.79976,-0.527686 -2.65522,0.671547 -2.29133,1.480962 -2.48327,1.525194 -3.5069,0.808212 -1.25121,-0.876382 -0.90019,-1.633794 1.53334,-3.308574 1.37011,-0.942931 2.1977,-1.726523 2.09797,-1.986456 -0.24506,-0.638565 -0.42812,-0.56726 -2.90522,1.131558 -1.73827,1.192121 -2.30002,1.769665 -2.37814,2.445003 -0.13885,1.200547 0.44235,2.178628 1.44399,2.430025 0.55366,0.138956 0.76894,0.368905 0.64579,0.689823 -0.24525,0.639098 0.0932,1.145559 0.57846,0.865615 0.21314,-0.122911 1.45817,-0.956026 2.76673,-1.851254 z M 35.426754,48.795239 c -0.02243,-0.580294 -4.839122,-4.245668 -5.247544,-3.993244 -0.552917,0.341721 -0.309366,0.62874 2.309163,2.721256 2.345962,1.874708 2.972155,2.14578 2.938381,1.271988 z M 178.83746,48.082791 c 2.78291,-1.439107 3.12611,-4.642923 0.63532,-5.930956 -1.32607,-0.685735 -2.63817,-0.368211 -4.07397,0.985924 -1.52108,1.434584 -1.58818,3.067028 -0.18375,4.471467 1.07451,1.074502 2.18066,1.219107 3.6224,0.473565 z m -3.05403,-1.098934 c -1.17436,-1.297661 -0.0792,-3.472286 2.0965,-4.162816 1.01641,-0.322591 2.28287,0.650633 2.28287,1.754301 0,2.166485 -3.07029,3.855044 -4.37937,2.408515 z M 38.522993,45.377953 C 38.65336,45.247596 37.9396,44.38343 36.936861,43.457611 c -1.942948,-1.793924 -2.256667,-2.726658 -1.280055,-3.805805 0.82059,-0.906738 1.302494,-0.752517 3.429566,1.09756 1.328209,1.155235 2.058937,1.590602 2.286973,1.36256 0.546476,-0.546469 -3.443884,-4.044737 -4.613709,-4.044737 -1.045418,0 -2.302271,1.288789 -2.302271,2.360775 0,0.347296 -0.147674,0.540175 -0.328165,0.428626 -0.180491,-0.111511 -0.490909,-0.102219 -0.689816,0.02069 -0.220322,0.136168 0.513635,1.105551 1.878151,2.480613 2.166933,2.183658 2.70363,2.521885 3.205458,2.020057 z M 29.001994,43.79766 c 0.111512,-0.290612 -0.01878,-0.586192 -0.307208,-0.696874 -0.642093,-0.24639 -0.935098,0.04993 -0.687487,0.695139 0.249108,0.649171 0.745919,0.650026 0.994695,0.0012 z M 173.53945,38.081797 c 0.61314,-0.314017 0.90915,-0.29195 1.5287,0.113989 0.66882,0.438228 0.81931,0.441958 1.16223,0.02874 0.32205,-0.388049 0.23383,-0.535528 -0.48352,-0.808261 -0.48259,-0.183487 -1.01086,-0.333606 -1.17394,-0.333606 -0.16307,0 -0.21723,-0.206569 -0.1203,-0.459056 0.0969,-0.252475 0.0443,-0.540497 -0.11672,-0.640052 -0.45615,-0.281914 -5.12443,4.574356 -4.83988,5.034763 0.16609,0.268754 0.72485,-0.07248 1.76312,-1.076844 0.83598,-0.808658 1.86214,-1.645515 2.28035,-1.859704 z M 47.510119,40.362966 c 1.216664,-0.741801 1.809996,-1.965864 1.517599,-3.130863 -0.25654,-1.02214 -5.013179,-6.454788 -5.501409,-6.283271 -0.204909,0.07198 -0.336372,0.342626 -0.292144,0.601419 0.04804,0.281084 -0.216207,0.492213 -0.65633,0.52439 -0.81103,0.05923 -2.213492,1.483278 -2.213492,2.247479 0,1.893418 2.07035,4.204497 3.766551,4.204497 1.151196,0 2.468591,-0.874946 2.468591,-1.639506 0,-0.878117 0.648368,-0.771722 1.144563,0.18781 0.386182,0.746793 0.429132,1.160848 0.170537,1.64404 -0.427427,0.798647 -1.545081,1.42512 -2.137163,1.197909 -0.243437,-0.09342 -0.607247,0.02849 -0.808469,0.270985 -0.272851,0.328761 -0.258096,0.48406 0.05804,0.61091 0.805871,0.323359 1.412658,0.216853 2.483116,-0.435799 z m -4.318672,-3.309257 c -0.843122,-0.663197 -1.842609,-2.227989 -1.842609,-2.884768 0,-0.603502 1.030424,-1.352401 1.860771,-1.352401 1.120158,0 2.733544,1.752702 2.733544,2.969579 0,0.590244 -0.26704,1.118227 -0.729349,1.442044 -0.928622,0.650435 -0.979239,0.646061 -2.022357,-0.174454 z M 167.86307,36.418192 c 0.71839,-0.906949 1.30619,-1.765093 1.30619,-1.906985 0,-0.141892 -0.55418,-0.744563 -1.2315,-1.339267 -0.84419,-0.741193 -1.41186,-1.010197 -1.80492,-0.85527 -0.49244,0.194092 -0.41122,0.363962 0.57518,1.203137 l 1.14857,0.977126 -0.80815,0.663618 c -1.06841,0.877325 -2.51121,0.60173 -3.70412,-0.707553 -1.11319,-1.221784 -1.13255,-2.006577 -0.0932,-3.780046 0.92802,-1.583539 2.73339,-2.621118 4.00526,-2.301897 1.337,0.335563 2.40516,1.6388 2.40516,2.934452 0,1.241782 0.55684,1.868056 1.01617,1.142871 0.64189,-1.013418 0.29876,-2.28014 -0.99261,-3.664569 -1.20406,-1.29081 -1.40489,-1.382001 -3.04356,-1.382001 -1.33772,0 -1.98637,0.181293 -2.73091,0.763285 -1.47404,1.152212 -2.4496,2.966209 -2.45153,4.558471 -0.001,1.147542 0.19625,1.581693 1.15782,2.54327 0.94092,0.940923 1.40711,1.159523 2.4728,1.159523 1.18077,0 1.28016,0.06183 0.9851,0.613178 -0.30533,0.570518 -0.17891,1.027654 0.2842,1.027654 0.10878,0 0.78568,-0.742048 1.50409,-1.648997 z M 58.30998,28.821599 c 0.41168,-0.386747 0.834835,-0.975182 0.940347,-1.307611 0.125431,-0.395209 0.506033,-0.60443 1.099524,-0.60443 1.35082,0 1.457032,-0.354284 0.284291,-0.948306 -0.714245,-0.361782 -1.130222,-0.871823 -1.31898,-1.617266 -0.321811,-1.270873 -1.111687,-1.235908 -0.973479,0.04312 0.09219,0.853126 0.09044,0.853745 -1.148579,0.411602 -0.682498,-0.243542 -1.215376,-0.572439 -1.184172,-0.730872 0.03119,-0.158434 0.150306,-0.66088 0.264673,-1.116554 0.247027,-0.984239 -0.859023,-2.605007 -1.777713,-2.605007 -0.867198,0 -2.317596,1.260647 -2.317596,2.014379 0,1.005637 0.611606,1.922845 1.509904,2.264381 0.680332,0.258657 0.757726,0.413881 0.472295,0.947216 -1.057613,1.976159 0.410858,4.550579 2.37197,4.158355 0.565953,-0.113246 1.365837,-0.522234 1.777515,-0.90898 z m -3.002235,-0.586254 c -0.44044,-0.486673 -0.528309,-0.929908 -0.361077,-1.821319 0.240357,-1.28122 0.314739,-1.289459 2.728898,-0.302098 0.976091,0.3992 1.035938,0.50464 0.702185,1.23716 -0.324795,0.712844 -1.513341,1.529469 -2.22605,1.529469 -0.144025,0 -0.523805,-0.289448 -0.843956,-0.643212 z m -1.534308,-4.915048 c -0.630702,-0.517575 -0.707181,-0.746348 -0.411388,-1.230618 0.523287,-0.856707 1.338953,-0.907519 1.765773,-0.110025 0.376317,0.703155 0.176632,1.976396 -0.309961,1.976396 -0.148333,0 -0.618324,-0.286103 -1.044424,-0.635765 z m 98.801463,1.822806 c 1.30332,-2.277972 1.72439,-2.6104 2.96204,-2.33856 0.78312,0.172 0.99795,0.107547 0.99795,-0.299136 0,-0.357135 -0.30615,-0.518331 -0.9845,-0.518331 -0.65634,0 -0.9845,-0.164083 -0.9845,-0.49225 0,-1.161738 -0.93638,-0.308751 -2.38363,2.171367 -1.67907,2.877335 -1.80165,3.243365 -1.08619,3.243365 0.25749,0 0.92297,-0.794904 1.47883,-1.766455 z m -4.97163,-1.371035 c 1.5752,-1.103309 2.2207,-3.866141 1.23281,-5.276561 -1.80914,-2.582904 -5.5199,-1.031227 -5.99443,2.5066 -0.14872,1.108834 -0.0372,1.416209 0.82846,2.2818 1.13964,1.139636 2.72258,1.336094 3.93316,0.488161 z m -3.40109,-1.287118 c -0.62961,-0.960919 -0.26624,-2.430538 0.91074,-3.683364 0.82877,-0.882197 1.48322,-0.945745 2.48848,-0.241634 1.03097,0.722117 0.976,2.427311 -0.12018,3.730114 -1.08645,1.29118 -2.5054,1.375521 -3.27899,0.194884 z M 69.571062,21.163687 c 0.159872,-1.552046 0.205268,-1.609765 1.769412,-2.249746 l 1.60533,-0.656833 0.933326,1.044572 c 0.9239,1.034023 1.927074,1.386583 1.927074,0.677258 0,-0.202023 -1.361103,-1.863361 -3.024674,-3.69186 -1.663572,-1.828499 -3.055349,-3.374948 -3.09284,-3.43655 -0.03749,-0.0616 -0.374645,-0.01474 -0.749229,0.104151 -0.627806,0.199257 -0.680837,0.464625 -0.678208,3.393659 0.0037,4.096562 0.313575,6.681285 0.78261,6.527399 0.199714,-0.06555 0.436954,-0.835953 0.527199,-1.71205 z m -0.142376,-3.012275 c -0.229841,-0.598958 -0.24733,-3.712136 -0.02085,-3.712136 0.18937,0 2.577895,2.58522 2.716019,2.939681 0.05035,0.129219 -0.493658,0.464821 -1.208914,0.74578 -1.139858,0.447749 -1.323407,0.451044 -1.486253,0.02667 z m 70.164484,0.117099 c 0.70055,-1.861367 1.10184,-2.516571 1.54134,-2.516571 0.84723,0 1.07879,-0.556862 0.39372,-0.946801 -0.46755,-0.266123 -0.50815,-0.44653 -0.20762,-0.922624 0.20547,-0.325499 0.60265,-0.572794 0.88261,-0.549546 0.88715,0.07368 0.8899,-0.788266 0.004,-1.010805 -0.90165,-0.226298 -1.61839,0.195685 -1.91392,1.12682 -0.10322,0.325196 -0.51504,0.687703 -0.91517,0.805572 -0.63953,0.188393 -0.66415,0.258076 -0.2036,0.576256 0.46913,0.324107 0.41236,0.646063 -0.54294,3.079432 -0.58676,1.494615 -0.97942,2.804906 -0.87258,2.911746 0.46832,0.468324 0.94984,-0.201761 1.83492,-2.553479 z m -13.4904,0.847123 c 0.28444,-0.315858 1.56912,-2.124871 2.85486,-4.020026 1.8314,-2.699469 2.22038,-3.47017 1.79601,-3.558553 -0.69203,-0.144127 -0.9133,0.08993 -2.4551,2.597039 -1.40739,2.288531 -1.47125,2.246836 -1.78053,-1.16246 -0.18734,-2.065012 -0.50596,-2.778723 -1.24713,-2.793481 -0.13881,-0.0027 -0.18202,0.327242 -0.096,0.733346 0.086,0.406105 0.31576,2.030069 0.51058,3.608808 0.40353,3.269715 0.15018,4.18512 -1.15822,4.18512 -0.50021,0 -0.80885,0.187835 -0.80885,0.492249 0,0.69642 1.73723,0.636646 2.38441,-0.08204 z M 79.805524,18.862865 c 0.09392,-0.0939 -0.114237,-1.210148 -0.462636,-2.480549 -0.585114,-2.133813 -0.593379,-2.370868 -0.108414,-3.110927 0.57058,-0.870822 1.844104,-1.073575 2.415874,-0.384624 0.190115,0.229064 0.595336,1.41046 0.900494,2.625323 0.451733,1.79835 0.675933,2.208842 1.206395,2.208842 0.384937,0 0.58826,-0.16785 0.496883,-0.410207 C 84.169,17.085109 83.846346,16.014471 83.537001,14.931525 82.7374,12.1324 82.249326,11.485787 80.936116,11.485787 c -0.672737,0 -1.317175,0.250861 -1.683069,0.655173 -0.391369,0.432456 -0.719177,0.550392 -0.964328,0.346937 -0.204264,-0.169529 -0.538168,-0.205165 -0.741999,-0.0792 -0.264256,0.163318 -0.121919,1.146693 0.495967,3.426965 0.771338,2.846515 1.202764,3.587329 1.762899,3.027194 z m 11.193173,-2.788538 c 0.515613,-0.405574 0.921693,-0.532721 1.048122,-0.328165 0.270305,0.437361 1.808475,0.433514 1.808475,-0.0046 0,-0.186154 -0.210138,-0.419103 -0.466983,-0.517664 -0.279999,-0.107447 -0.63208,-1.103011 -0.87931,-2.486393 -0.226767,-1.268956 -0.617873,-2.512751 -0.869108,-2.7639885 -1.157297,-1.1572901 -4.676066,-0.00149 -4.676066,1.5360135 0,0.881542 0.538799,0.7888 1.189829,-0.204801 0.447621,-0.683155 0.766209,-0.819096 1.730436,-0.738371 0.923874,0.07735 1.181805,0.240143 1.181805,0.745927 0,0.457372 -0.394881,0.79399 -1.347359,1.14858 -1.84687,0.687546 -2.426544,1.242549 -2.426544,2.323243 0,1.87192 2.056943,2.587851 3.706703,1.290143 z m -2.503431,-0.541166 c -0.646767,-0.646762 -0.13312,-1.482093 1.285172,-2.090042 0.827184,-0.354569 1.565548,-0.64467 1.640828,-0.64467 0.418962,0 0.04384,1.951396 -0.463257,2.41038 -0.601205,0.544084 -2.051934,0.735139 -2.462743,0.324332 z m 32.381044,-2.215289 c 0.18103,-1.702061 0.15672,-2.851302 -0.0708,-3.3508393 -0.42798,-0.9392659 -1.78036,-1.3163546 -2.89674,-0.8076992 -0.68037,0.3099992 -0.94406,0.2868791 -1.39633,-0.1224277 -0.61593,-0.5574091 -1.89205,-0.6557724 -2.61016,-0.2011918 -0.30506,0.1931068 -0.63682,0.1199618 -0.97082,-0.2140271 -0.45774,-0.4577358 -0.52919,-0.4258683 -0.73018,0.3256709 -0.12254,0.4581811 -0.32865,2.0289742 -0.45804,3.4906552 -0.201,2.270664 -0.16205,2.657599 0.26755,2.657599 0.3703,0 0.55505,-0.497178 0.70117,-1.88695 0.28002,-2.663334 0.77164,-3.5040642 2.12529,-3.6344235 l 1.10743,-0.1066424 -0.20642,3.1421739 c -0.17079,2.600114 -0.12555,3.142176 0.2622,3.142176 0.45835,0 0.55223,-0.341439 0.98782,-3.593538 0.23242,-1.735232 0.6432,-2.3134392 1.64358,-2.3134392 1.50981,0 1.64296,0.7284712 0.94994,5.1965402 -0.14365,0.926217 -0.0784,1.076981 0.42465,0.980692 0.48441,-0.09272 0.64538,-0.59316 0.86993,-2.704322 z m -21.770362,1.816009 c 0,-0.15944 -0.272556,-0.361169 -0.605697,-0.448285 -0.975025,-0.254973 -1.491125,-5.1687998 -0.542882,-5.1687998 0.270734,0 0.49224,-0.2215123 0.49224,-0.4922485 0,-0.273471 -0.291695,-0.4922484 -0.656319,-0.4922484 -0.481311,0 -0.65633,-0.2187764 -0.65633,-0.8204131 0,-0.5104796 -0.185968,-0.820413 -0.492249,-0.820413 -0.32817,0 -0.49225,0.3281646 -0.49225,0.9844958 0,0.5414734 -0.14768,0.9844969 -0.328169,0.9844969 -0.180489,0 -0.32817,0.2215113 -0.32817,0.4922474 0,0.2707362 0.200206,0.4922475 0.444886,0.4922475 0.318127,0 0.497679,0.6981122 0.630206,2.4502912 0.101971,1.34766 0.27962,2.602893 0.394892,2.789405 0.255031,0.412645 2.139842,0.456002 2.139842,0.04923 z m 7.040852,-0.242123 c 1.26139,-0.484043 1.97039,-3.866869 1.13685,-5.4243183 -0.49872,-0.9318855 -2.29072,-1.6171292 -3.43127,-1.3120936 -2.23237,0.5970258 -3.14522,4.3311069 -1.48962,6.0934089 0.79662,0.847964 2.49697,1.136895 3.78404,0.643003 z m -2.79304,-1.057673 c -0.59034,-0.478019 -0.74738,-0.937003 -0.74738,-2.184214 0,-1.247212 0.15704,-1.7061943 0.74738,-2.1842147 1.53276,-1.2411594 3.29999,-0.2356486 3.29999,1.8776227 0,2.635254 -1.61563,3.854719 -3.29999,2.490806 z"
       id="path1" /></g></svg>
